solid ASCII
  facet normal 0.000000e+00 0.000000e+00 1.000000e+00
    outer loop
      vertex   1.900000e+01 5.500000e+00 1.700000e+00
      vertex   1.900000e+01 -5.500000e+00 1.700000e+00
      vertex   2.000000e+01 -5.500000e+00 1.700000e+00
    endloop
  endfacet
  facet normal 0.000000e+00 0.000000e+00 1.000000e+00
    outer loop
      vertex   2.000000e+01 -5.500000e+00 1.700000e+00
      vertex   1.900000e+01 -5.500000e+00 1.700000e+00
      vertex   1.897493e+01 -5.722521e+00 1.700000e+00
    endloop
  endfacet
  facet normal 0.000000e+00 0.000000e+00 1.000000e+00
    outer loop
      vertex   2.000000e+01 -5.500000e+00 1.700000e+00
      vertex   1.897493e+01 -5.722521e+00 1.700000e+00
      vertex   1.997538e+01 -5.812869e+00 1.700000e+00
    endloop
  endfacet
  facet normal 0.000000e+00 0.000000e+00 1.000000e+00
    outer loop
      vertex   1.997538e+01 -5.812869e+00 1.700000e+00
      vertex   1.897493e+01 -5.722521e+00 1.700000e+00
      vertex   1.890097e+01 -5.933884e+00 1.700000e+00
    endloop
  endfacet
  facet normal 0.000000e+00 0.000000e+00 1.000000e+00
    outer loop
      vertex   1.997538e+01 -5.812869e+00 1.700000e+00
      vertex   1.890097e+01 -5.933884e+00 1.700000e+00
      vertex   1.990211e+01 -6.118034e+00 1.700000e+00
    endloop
  endfacet
  facet normal 0.000000e+00 0.000000e+00 1.000000e+00
    outer loop
      vertex   1.990211e+01 -6.118034e+00 1.700000e+00
      vertex   1.890097e+01 -5.933884e+00 1.700000e+00
      vertex   1.878183e+01 -6.123490e+00 1.700000e+00
    endloop
  endfacet
  facet normal 0.000000e+00 0.000000e+00 1.000000e+00
    outer loop
      vertex   1.990211e+01 -6.118034e+00 1.700000e+00
      vertex   1.878183e+01 -6.123490e+00 1.700000e+00
      vertex   1.978201e+01 -6.407981e+00 1.700000e+00
    endloop
  endfacet
  facet normal 0.000000e+00 0.000000e+00 1.000000e+00
    outer loop
      vertex   1.978201e+01 -6.407981e+00 1.700000e+00
      vertex   1.878183e+01 -6.123490e+00 1.700000e+00
      vertex   1.862349e+01 -6.281831e+00 1.700000e+00
    endloop
  endfacet
  facet normal 0.000000e+00 0.000000e+00 1.000000e+00
    outer loop
      vertex   1.978201e+01 -6.407981e+00 1.700000e+00
      vertex   1.862349e+01 -6.281831e+00 1.700000e+00
      vertex   1.843388e+01 -6.400969e+00 1.700000e+00
    endloop
  endfacet
  facet normal 0.000000e+00 0.000000e+00 1.000000e+00
    outer loop
      vertex   1.978201e+01 -6.407981e+00 1.700000e+00
      vertex   1.843388e+01 -6.400969e+00 1.700000e+00
      vertex   1.961803e+01 -6.675571e+00 1.700000e+00
    endloop
  endfacet
  facet normal 0.000000e+00 0.000000e+00 1.000000e+00
    outer loop
      vertex   1.961803e+01 -6.675571e+00 1.700000e+00
      vertex   1.843388e+01 -6.400969e+00 1.700000e+00
      vertex   1.822252e+01 -6.474928e+00 1.700000e+00
    endloop
  endfacet
  facet normal 0.000000e+00 0.000000e+00 1.000000e+00
    outer loop
      vertex   1.961803e+01 -6.675571e+00 1.700000e+00
      vertex   1.822252e+01 -6.474928e+00 1.700000e+00
      vertex   1.941421e+01 -6.914214e+00 1.700000e+00
    endloop
  endfacet
  facet normal 0.000000e+00 0.000000e+00 1.000000e+00
    outer loop
      vertex   1.941421e+01 -6.914214e+00 1.700000e+00
      vertex   1.822252e+01 -6.474928e+00 1.700000e+00
      vertex   1.800000e+01 -6.500000e+00 1.700000e+00
    endloop
  endfacet
  facet normal 0.000000e+00 0.000000e+00 1.000000e+00
    outer loop
      vertex   1.941421e+01 -6.914214e+00 1.700000e+00
      vertex   1.800000e+01 -6.500000e+00 1.700000e+00
      vertex   1.917557e+01 -7.118034e+00 1.700000e+00
    endloop
  endfacet
  facet normal 0.000000e+00 0.000000e+00 1.000000e+00
    outer loop
      vertex   1.917557e+01 -7.118034e+00 1.700000e+00
      vertex   1.800000e+01 -6.500000e+00 1.700000e+00
      vertex   1.890798e+01 -7.282013e+00 1.700000e+00
    endloop
  endfacet
  facet normal 0.000000e+00 0.000000e+00 1.000000e+00
    outer loop
      vertex   1.890798e+01 -7.282013e+00 1.700000e+00
      vertex   1.800000e+01 -6.500000e+00 1.700000e+00
      vertex   1.861803e+01 -7.402113e+00 1.700000e+00
    endloop
  endfacet
  facet normal 0.000000e+00 0.000000e+00 1.000000e+00
    outer loop
      vertex   1.861803e+01 -7.402113e+00 1.700000e+00
      vertex   1.800000e+01 -6.500000e+00 1.700000e+00
      vertex   1.800000e+01 -7.500000e+00 1.700000e+00
    endloop
  endfacet
  facet normal 0.000000e+00 0.000000e+00 1.000000e+00
    outer loop
      vertex   1.861803e+01 -7.402113e+00 1.700000e+00
      vertex   1.800000e+01 -7.500000e+00 1.700000e+00
      vertex   1.831287e+01 -7.475377e+00 1.700000e+00
    endloop
  endfacet
  facet normal 0.000000e+00 0.000000e+00 1.000000e+00
    outer loop
      vertex   1.800000e+01 -6.500000e+00 1.700000e+00
      vertex   -1.800000e+01 -6.500000e+00 1.700000e+00
      vertex   1.800000e+01 -7.500000e+00 1.700000e+00
    endloop
  endfacet
  facet normal 0.000000e+00 0.000000e+00 1.000000e+00
    outer loop
      vertex   1.800000e+01 -7.500000e+00 1.700000e+00
      vertex   -1.800000e+01 -6.500000e+00 1.700000e+00
      vertex   -1.800000e+01 -7.500000e+00 1.700000e+00
    endloop
  endfacet
  facet normal 0.000000e+00 0.000000e+00 1.000000e+00
    outer loop
      vertex   -1.800000e+01 -7.500000e+00 1.700000e+00
      vertex   -1.800000e+01 -6.500000e+00 1.700000e+00
      vertex   -1.861803e+01 -7.402113e+00 1.700000e+00
    endloop
  endfacet
  facet normal 0.000000e+00 0.000000e+00 1.000000e+00
    outer loop
      vertex   -1.800000e+01 -7.500000e+00 1.700000e+00
      vertex   -1.861803e+01 -7.402113e+00 1.700000e+00
      vertex   -1.831287e+01 -7.475377e+00 1.700000e+00
    endloop
  endfacet
  facet normal 0.000000e+00 0.000000e+00 1.000000e+00
    outer loop
      vertex   -1.822252e+01 -6.474928e+00 1.700000e+00
      vertex   -1.941421e+01 -6.914214e+00 1.700000e+00
      vertex   -1.800000e+01 -6.500000e+00 1.700000e+00
    endloop
  endfacet
  facet normal 0.000000e+00 0.000000e+00 1.000000e+00
    outer loop
      vertex   -1.800000e+01 -6.500000e+00 1.700000e+00
      vertex   -1.941421e+01 -6.914214e+00 1.700000e+00
      vertex   -1.917557e+01 -7.118034e+00 1.700000e+00
    endloop
  endfacet
  facet normal 0.000000e+00 0.000000e+00 1.000000e+00
    outer loop
      vertex   -1.800000e+01 -6.500000e+00 1.700000e+00
      vertex   -1.917557e+01 -7.118034e+00 1.700000e+00
      vertex   -1.890798e+01 -7.282013e+00 1.700000e+00
    endloop
  endfacet
  facet normal 0.000000e+00 -0.000000e+00 1.000000e+00
    outer loop
      vertex   -1.941421e+01 -6.914214e+00 1.700000e+00
      vertex   -1.822252e+01 -6.474928e+00 1.700000e+00
      vertex   -1.961803e+01 -6.675571e+00 1.700000e+00
    endloop
  endfacet
  facet normal 0.000000e+00 0.000000e+00 1.000000e+00
    outer loop
      vertex   -1.961803e+01 -6.675571e+00 1.700000e+00
      vertex   -1.822252e+01 -6.474928e+00 1.700000e+00
      vertex   -1.843388e+01 -6.400969e+00 1.700000e+00
    endloop
  endfacet
  facet normal 0.000000e+00 -0.000000e+00 1.000000e+00
    outer loop
      vertex   -1.961803e+01 -6.675571e+00 1.700000e+00
      vertex   -1.843388e+01 -6.400969e+00 1.700000e+00
      vertex   -1.978201e+01 -6.407981e+00 1.700000e+00
    endloop
  endfacet
  facet normal 0.000000e+00 0.000000e+00 1.000000e+00
    outer loop
      vertex   -1.978201e+01 -6.407981e+00 1.700000e+00
      vertex   -1.843388e+01 -6.400969e+00 1.700000e+00
      vertex   -1.862349e+01 -6.281831e+00 1.700000e+00
    endloop
  endfacet
  facet normal 0.000000e+00 0.000000e+00 1.000000e+00
    outer loop
      vertex   -1.978201e+01 -6.407981e+00 1.700000e+00
      vertex   -1.862349e+01 -6.281831e+00 1.700000e+00
      vertex   -1.878183e+01 -6.123490e+00 1.700000e+00
    endloop
  endfacet
  facet normal 0.000000e+00 -0.000000e+00 1.000000e+00
    outer loop
      vertex   -1.978201e+01 -6.407981e+00 1.700000e+00
      vertex   -1.878183e+01 -6.123490e+00 1.700000e+00
      vertex   -1.990211e+01 -6.118034e+00 1.700000e+00
    endloop
  endfacet
  facet normal -0.000000e+00 0.000000e+00 1.000000e+00
    outer loop
      vertex   -1.990211e+01 -6.118034e+00 1.700000e+00
      vertex   -1.878183e+01 -6.123490e+00 1.700000e+00
      vertex   -1.890097e+01 -5.933884e+00 1.700000e+00
    endloop
  endfacet
  facet normal 0.000000e+00 -0.000000e+00 1.000000e+00
    outer loop
      vertex   -1.990211e+01 -6.118034e+00 1.700000e+00
      vertex   -1.890097e+01 -5.933884e+00 1.700000e+00
      vertex   -1.997538e+01 -5.812869e+00 1.700000e+00
    endloop
  endfacet
  facet normal -0.000000e+00 0.000000e+00 1.000000e+00
    outer loop
      vertex   -1.997538e+01 -5.812869e+00 1.700000e+00
      vertex   -1.890097e+01 -5.933884e+00 1.700000e+00
      vertex   -1.897493e+01 -5.722521e+00 1.700000e+00
    endloop
  endfacet
  facet normal 0.000000e+00 -0.000000e+00 1.000000e+00
    outer loop
      vertex   -1.997538e+01 -5.812869e+00 1.700000e+00
      vertex   -1.897493e+01 -5.722521e+00 1.700000e+00
      vertex   -2.000000e+01 -5.500000e+00 1.700000e+00
    endloop
  endfacet
  facet normal -0.000000e+00 0.000000e+00 1.000000e+00
    outer loop
      vertex   -2.000000e+01 -5.500000e+00 1.700000e+00
      vertex   -1.897493e+01 -5.722521e+00 1.700000e+00
      vertex   -1.900000e+01 -5.500000e+00 1.700000e+00
    endloop
  endfacet
  facet normal 0.000000e+00 0.000000e+00 1.000000e+00
    outer loop
      vertex   -2.000000e+01 -5.500000e+00 1.700000e+00
      vertex   -1.900000e+01 -5.500000e+00 1.700000e+00
      vertex   -2.000000e+01 5.500000e+00 1.700000e+00
    endloop
  endfacet
  facet normal -0.000000e+00 0.000000e+00 1.000000e+00
    outer loop
      vertex   -2.000000e+01 5.500000e+00 1.700000e+00
      vertex   -1.900000e+01 -5.500000e+00 1.700000e+00
      vertex   -1.900000e+01 5.500000e+00 1.700000e+00
    endloop
  endfacet
  facet normal 0.000000e+00 0.000000e+00 1.000000e+00
    outer loop
      vertex   -2.000000e+01 5.500000e+00 1.700000e+00
      vertex   -1.900000e+01 5.500000e+00 1.700000e+00
      vertex   -1.897493e+01 5.722521e+00 1.700000e+00
    endloop
  endfacet
  facet normal 0.000000e+00 0.000000e+00 1.000000e+00
    outer loop
      vertex   -2.000000e+01 5.500000e+00 1.700000e+00
      vertex   -1.897493e+01 5.722521e+00 1.700000e+00
      vertex   -1.997538e+01 5.812869e+00 1.700000e+00
    endloop
  endfacet
  facet normal -0.000000e+00 0.000000e+00 1.000000e+00
    outer loop
      vertex   -1.997538e+01 5.812869e+00 1.700000e+00
      vertex   -1.897493e+01 5.722521e+00 1.700000e+00
      vertex   -1.890097e+01 5.933884e+00 1.700000e+00
    endloop
  endfacet
  facet normal 0.000000e+00 0.000000e+00 1.000000e+00
    outer loop
      vertex   -1.997538e+01 5.812869e+00 1.700000e+00
      vertex   -1.890097e+01 5.933884e+00 1.700000e+00
      vertex   -1.990211e+01 6.118034e+00 1.700000e+00
    endloop
  endfacet
  facet normal -0.000000e+00 0.000000e+00 1.000000e+00
    outer loop
      vertex   -1.990211e+01 6.118034e+00 1.700000e+00
      vertex   -1.890097e+01 5.933884e+00 1.700000e+00
      vertex   -1.878183e+01 6.123490e+00 1.700000e+00
    endloop
  endfacet
  facet normal 0.000000e+00 0.000000e+00 1.000000e+00
    outer loop
      vertex   -1.990211e+01 6.118034e+00 1.700000e+00
      vertex   -1.878183e+01 6.123490e+00 1.700000e+00
      vertex   -1.978201e+01 6.407981e+00 1.700000e+00
    endloop
  endfacet
  facet normal 0.000000e+00 0.000000e+00 1.000000e+00
    outer loop
      vertex   -1.978201e+01 6.407981e+00 1.700000e+00
      vertex   -1.878183e+01 6.123490e+00 1.700000e+00
      vertex   -1.862349e+01 6.281831e+00 1.700000e+00
    endloop
  endfacet
  facet normal 0.000000e+00 0.000000e+00 1.000000e+00
    outer loop
      vertex   -1.978201e+01 6.407981e+00 1.700000e+00
      vertex   -1.862349e+01 6.281831e+00 1.700000e+00
      vertex   -1.843388e+01 6.400969e+00 1.700000e+00
    endloop
  endfacet
  facet normal -0.000000e+00 0.000000e+00 1.000000e+00
    outer loop
      vertex   -1.978201e+01 6.407981e+00 1.700000e+00
      vertex   -1.843388e+01 6.400969e+00 1.700000e+00
      vertex   -1.961803e+01 6.675571e+00 1.700000e+00
    endloop
  endfacet
  facet normal 0.000000e+00 0.000000e+00 1.000000e+00
    outer loop
      vertex   -1.961803e+01 6.675571e+00 1.700000e+00
      vertex   -1.843388e+01 6.400969e+00 1.700000e+00
      vertex   -1.822252e+01 6.474928e+00 1.700000e+00
    endloop
  endfacet
  facet normal -0.000000e+00 0.000000e+00 1.000000e+00
    outer loop
      vertex   -1.961803e+01 6.675571e+00 1.700000e+00
      vertex   -1.822252e+01 6.474928e+00 1.700000e+00
      vertex   -1.941421e+01 6.914214e+00 1.700000e+00
    endloop
  endfacet
  facet normal 0.000000e+00 0.000000e+00 1.000000e+00
    outer loop
      vertex   -1.941421e+01 6.914214e+00 1.700000e+00
      vertex   -1.822252e+01 6.474928e+00 1.700000e+00
      vertex   -1.800000e+01 6.500000e+00 1.700000e+00
    endloop
  endfacet
  facet normal -0.000000e+00 0.000000e+00 1.000000e+00
    outer loop
      vertex   -1.941421e+01 6.914214e+00 1.700000e+00
      vertex   -1.800000e+01 6.500000e+00 1.700000e+00
      vertex   -1.917557e+01 7.118034e+00 1.700000e+00
    endloop
  endfacet
  facet normal -0.000000e+00 0.000000e+00 1.000000e+00
    outer loop
      vertex   -1.917557e+01 7.118034e+00 1.700000e+00
      vertex   -1.800000e+01 6.500000e+00 1.700000e+00
      vertex   -1.890798e+01 7.282013e+00 1.700000e+00
    endloop
  endfacet
  facet normal -0.000000e+00 0.000000e+00 1.000000e+00
    outer loop
      vertex   -1.890798e+01 7.282013e+00 1.700000e+00
      vertex   -1.800000e+01 6.500000e+00 1.700000e+00
      vertex   -1.861803e+01 7.402113e+00 1.700000e+00
    endloop
  endfacet
  facet normal -0.000000e+00 0.000000e+00 1.000000e+00
    outer loop
      vertex   -1.861803e+01 7.402113e+00 1.700000e+00
      vertex   -1.800000e+01 6.500000e+00 1.700000e+00
      vertex   -1.800000e+01 7.500000e+00 1.700000e+00
    endloop
  endfacet
  facet normal 0.000000e+00 0.000000e+00 1.000000e+00
    outer loop
      vertex   -1.861803e+01 7.402113e+00 1.700000e+00
      vertex   -1.800000e+01 7.500000e+00 1.700000e+00
      vertex   -1.831287e+01 7.475377e+00 1.700000e+00
    endloop
  endfacet
  facet normal 0.000000e+00 0.000000e+00 1.000000e+00
    outer loop
      vertex   -1.800000e+01 6.500000e+00 1.700000e+00
      vertex   1.800000e+01 6.500000e+00 1.700000e+00
      vertex   -1.800000e+01 7.500000e+00 1.700000e+00
    endloop
  endfacet
  facet normal -0.000000e+00 0.000000e+00 1.000000e+00
    outer loop
      vertex   -1.800000e+01 7.500000e+00 1.700000e+00
      vertex   1.800000e+01 6.500000e+00 1.700000e+00
      vertex   1.800000e+01 7.500000e+00 1.700000e+00
    endloop
  endfacet
  facet normal 0.000000e+00 0.000000e+00 1.000000e+00
    outer loop
      vertex   1.800000e+01 7.500000e+00 1.700000e+00
      vertex   1.800000e+01 6.500000e+00 1.700000e+00
      vertex   1.861803e+01 7.402113e+00 1.700000e+00
    endloop
  endfacet
  facet normal 0.000000e+00 0.000000e+00 1.000000e+00
    outer loop
      vertex   1.800000e+01 7.500000e+00 1.700000e+00
      vertex   1.861803e+01 7.402113e+00 1.700000e+00
      vertex   1.831287e+01 7.475377e+00 1.700000e+00
    endloop
  endfacet
  facet normal 0.000000e+00 -0.000000e+00 1.000000e+00
    outer loop
      vertex   1.822252e+01 6.474928e+00 1.700000e+00
      vertex   1.941421e+01 6.914214e+00 1.700000e+00
      vertex   1.800000e+01 6.500000e+00 1.700000e+00
    endloop
  endfacet
  facet normal 0.000000e+00 0.000000e+00 1.000000e+00
    outer loop
      vertex   1.800000e+01 6.500000e+00 1.700000e+00
      vertex   1.941421e+01 6.914214e+00 1.700000e+00
      vertex   1.917557e+01 7.118034e+00 1.700000e+00
    endloop
  endfacet
  facet normal 0.000000e+00 0.000000e+00 1.000000e+00
    outer loop
      vertex   1.800000e+01 6.500000e+00 1.700000e+00
      vertex   1.917557e+01 7.118034e+00 1.700000e+00
      vertex   1.890798e+01 7.282013e+00 1.700000e+00
    endloop
  endfacet
  facet normal 0.000000e+00 0.000000e+00 1.000000e+00
    outer loop
      vertex   1.941421e+01 6.914214e+00 1.700000e+00
      vertex   1.822252e+01 6.474928e+00 1.700000e+00
      vertex   1.961803e+01 6.675571e+00 1.700000e+00
    endloop
  endfacet
  facet normal 0.000000e+00 0.000000e+00 1.000000e+00
    outer loop
      vertex   1.961803e+01 6.675571e+00 1.700000e+00
      vertex   1.822252e+01 6.474928e+00 1.700000e+00
      vertex   1.843388e+01 6.400969e+00 1.700000e+00
    endloop
  endfacet
  facet normal 0.000000e+00 0.000000e+00 1.000000e+00
    outer loop
      vertex   1.961803e+01 6.675571e+00 1.700000e+00
      vertex   1.843388e+01 6.400969e+00 1.700000e+00
      vertex   1.978201e+01 6.407981e+00 1.700000e+00
    endloop
  endfacet
  facet normal 0.000000e+00 0.000000e+00 1.000000e+00
    outer loop
      vertex   1.978201e+01 6.407981e+00 1.700000e+00
      vertex   1.843388e+01 6.400969e+00 1.700000e+00
      vertex   1.862349e+01 6.281831e+00 1.700000e+00
    endloop
  endfacet
  facet normal 0.000000e+00 0.000000e+00 1.000000e+00
    outer loop
      vertex   1.978201e+01 6.407981e+00 1.700000e+00
      vertex   1.862349e+01 6.281831e+00 1.700000e+00
      vertex   1.878183e+01 6.123490e+00 1.700000e+00
    endloop
  endfacet
  facet normal 0.000000e+00 0.000000e+00 1.000000e+00
    outer loop
      vertex   1.978201e+01 6.407981e+00 1.700000e+00
      vertex   1.878183e+01 6.123490e+00 1.700000e+00
      vertex   1.990211e+01 6.118034e+00 1.700000e+00
    endloop
  endfacet
  facet normal 0.000000e+00 0.000000e+00 1.000000e+00
    outer loop
      vertex   1.990211e+01 6.118034e+00 1.700000e+00
      vertex   1.878183e+01 6.123490e+00 1.700000e+00
      vertex   1.890097e+01 5.933884e+00 1.700000e+00
    endloop
  endfacet
  facet normal 0.000000e+00 0.000000e+00 1.000000e+00
    outer loop
      vertex   1.990211e+01 6.118034e+00 1.700000e+00
      vertex   1.890097e+01 5.933884e+00 1.700000e+00
      vertex   1.997538e+01 5.812869e+00 1.700000e+00
    endloop
  endfacet
  facet normal 0.000000e+00 0.000000e+00 1.000000e+00
    outer loop
      vertex   1.997538e+01 5.812869e+00 1.700000e+00
      vertex   1.890097e+01 5.933884e+00 1.700000e+00
      vertex   1.897493e+01 5.722521e+00 1.700000e+00
    endloop
  endfacet
  facet normal 0.000000e+00 0.000000e+00 1.000000e+00
    outer loop
      vertex   1.997538e+01 5.812869e+00 1.700000e+00
      vertex   1.897493e+01 5.722521e+00 1.700000e+00
      vertex   2.000000e+01 5.500000e+00 1.700000e+00
    endloop
  endfacet
  facet normal 0.000000e+00 0.000000e+00 1.000000e+00
    outer loop
      vertex   2.000000e+01 5.500000e+00 1.700000e+00
      vertex   1.897493e+01 5.722521e+00 1.700000e+00
      vertex   1.900000e+01 5.500000e+00 1.700000e+00
    endloop
  endfacet
  facet normal 0.000000e+00 0.000000e+00 1.000000e+00
    outer loop
      vertex   2.000000e+01 5.500000e+00 1.700000e+00
      vertex   1.900000e+01 5.500000e+00 1.700000e+00
      vertex   2.000000e+01 -5.500000e+00 1.700000e+00
    endloop
  endfacet
  facet normal 0.000000e+00 0.000000e+00 1.000000e+00
    outer loop
      vertex   1.890798e+01 7.282013e+00 1.700000e+00
      vertex   1.861803e+01 7.402113e+00 1.700000e+00
      vertex   1.800000e+01 6.500000e+00 1.700000e+00
    endloop
  endfacet
  facet normal -0.000000e+00 0.000000e+00 1.000000e+00
    outer loop
      vertex   -1.890798e+01 -7.282013e+00 1.700000e+00
      vertex   -1.861803e+01 -7.402113e+00 1.700000e+00
      vertex   -1.800000e+01 -6.500000e+00 1.700000e+00
    endloop
  endfacet
  facet normal 1.000000e+00 0.000000e+00 0.000000e+00
    outer loop
      vertex   -1.900000e+01 5.500000e+00 1.700000e+00
      vertex   -1.900000e+01 -5.500000e+00 1.700000e+00
      vertex   -1.900000e+01 5.500000e+00 1.000000e+00
    endloop
  endfacet
  facet normal 1.000000e+00 0.000000e+00 0.000000e+00
    outer loop
      vertex   -1.900000e+01 5.500000e+00 1.000000e+00
      vertex   -1.900000e+01 -5.500000e+00 1.700000e+00
      vertex   -1.900000e+01 -5.500000e+00 1.000000e+00
    endloop
  endfacet
  facet normal 9.937122e-01 1.119645e-01 -0.000000e+00
    outer loop
      vertex   -1.900000e+01 -5.500000e+00 1.000000e+00
      vertex   -1.900000e+01 -5.500000e+00 1.700000e+00
      vertex   -1.897493e+01 -5.722521e+00 1.000000e+00
    endloop
  endfacet
  facet normal 9.937122e-01 1.119645e-01 -0.000000e+00
    outer loop
      vertex   -1.897493e+01 -5.722521e+00 1.000000e+00
      vertex   -1.900000e+01 -5.500000e+00 1.700000e+00
      vertex   -1.897493e+01 -5.722521e+00 1.700000e+00
    endloop
  endfacet
  facet normal 9.438833e-01 3.302791e-01 -0.000000e+00
    outer loop
      vertex   -1.897493e+01 -5.722521e+00 1.000000e+00
      vertex   -1.897493e+01 -5.722521e+00 1.700000e+00
      vertex   -1.890097e+01 -5.933884e+00 1.000000e+00
    endloop
  endfacet
  facet normal 9.438833e-01 3.302791e-01 -0.000000e+00
    outer loop
      vertex   -1.890097e+01 -5.933884e+00 1.000000e+00
      vertex   -1.897493e+01 -5.722521e+00 1.700000e+00
      vertex   -1.890097e+01 -5.933884e+00 1.700000e+00
    endloop
  endfacet
  facet normal 8.467242e-01 5.320321e-01 -0.000000e+00
    outer loop
      vertex   -1.890097e+01 -5.933884e+00 1.000000e+00
      vertex   -1.890097e+01 -5.933884e+00 1.700000e+00
      vertex   -1.878183e+01 -6.123490e+00 1.000000e+00
    endloop
  endfacet
  facet normal 8.467242e-01 5.320321e-01 -0.000000e+00
    outer loop
      vertex   -1.878183e+01 -6.123490e+00 1.000000e+00
      vertex   -1.890097e+01 -5.933884e+00 1.700000e+00
      vertex   -1.878183e+01 -6.123490e+00 1.700000e+00
    endloop
  endfacet
  facet normal 7.071068e-01 7.071068e-01 -0.000000e+00
    outer loop
      vertex   -1.878183e+01 -6.123490e+00 1.000000e+00
      vertex   -1.878183e+01 -6.123490e+00 1.700000e+00
      vertex   -1.862349e+01 -6.281831e+00 1.000000e+00
    endloop
  endfacet
  facet normal 7.071068e-01 7.071068e-01 -0.000000e+00
    outer loop
      vertex   -1.862349e+01 -6.281831e+00 1.000000e+00
      vertex   -1.878183e+01 -6.123490e+00 1.700000e+00
      vertex   -1.862349e+01 -6.281831e+00 1.700000e+00
    endloop
  endfacet
  facet normal 5.320321e-01 8.467242e-01 -0.000000e+00
    outer loop
      vertex   -1.862349e+01 -6.281831e+00 1.000000e+00
      vertex   -1.862349e+01 -6.281831e+00 1.700000e+00
      vertex   -1.843388e+01 -6.400969e+00 1.000000e+00
    endloop
  endfacet
  facet normal 5.320321e-01 8.467242e-01 -0.000000e+00
    outer loop
      vertex   -1.843388e+01 -6.400969e+00 1.000000e+00
      vertex   -1.862349e+01 -6.281831e+00 1.700000e+00
      vertex   -1.843388e+01 -6.400969e+00 1.700000e+00
    endloop
  endfacet
  facet normal 3.302791e-01 9.438833e-01 -0.000000e+00
    outer loop
      vertex   -1.843388e+01 -6.400969e+00 1.000000e+00
      vertex   -1.843388e+01 -6.400969e+00 1.700000e+00
      vertex   -1.822252e+01 -6.474928e+00 1.000000e+00
    endloop
  endfacet
  facet normal 3.302791e-01 9.438833e-01 -0.000000e+00
    outer loop
      vertex   -1.822252e+01 -6.474928e+00 1.000000e+00
      vertex   -1.843388e+01 -6.400969e+00 1.700000e+00
      vertex   -1.822252e+01 -6.474928e+00 1.700000e+00
    endloop
  endfacet
  facet normal 1.119645e-01 9.937122e-01 -0.000000e+00
    outer loop
      vertex   -1.822252e+01 -6.474928e+00 1.000000e+00
      vertex   -1.822252e+01 -6.474928e+00 1.700000e+00
      vertex   -1.800000e+01 -6.500000e+00 1.000000e+00
    endloop
  endfacet
  facet normal 1.119645e-01 9.937122e-01 -0.000000e+00
    outer loop
      vertex   -1.800000e+01 -6.500000e+00 1.000000e+00
      vertex   -1.822252e+01 -6.474928e+00 1.700000e+00
      vertex   -1.800000e+01 -6.500000e+00 1.700000e+00
    endloop
  endfacet
  facet normal -0.000000e+00 1.000000e+00 0.000000e+00
    outer loop
      vertex   -1.800000e+01 -6.500000e+00 1.700000e+00
      vertex   1.800000e+01 -6.500000e+00 1.700000e+00
      vertex   -1.800000e+01 -6.500000e+00 1.000000e+00
    endloop
  endfacet
  facet normal 0.000000e+00 1.000000e+00 0.000000e+00
    outer loop
      vertex   -1.800000e+01 -6.500000e+00 1.000000e+00
      vertex   1.800000e+01 -6.500000e+00 1.700000e+00
      vertex   1.800000e+01 -6.500000e+00 1.000000e+00
    endloop
  endfacet
  facet normal -1.119645e-01 9.937122e-01 0.000000e+00
    outer loop
      vertex   1.800000e+01 -6.500000e+00 1.000000e+00
      vertex   1.800000e+01 -6.500000e+00 1.700000e+00
      vertex   1.822252e+01 -6.474928e+00 1.000000e+00
    endloop
  endfacet
  facet normal -1.119645e-01 9.937122e-01 0.000000e+00
    outer loop
      vertex   1.822252e+01 -6.474928e+00 1.000000e+00
      vertex   1.800000e+01 -6.500000e+00 1.700000e+00
      vertex   1.822252e+01 -6.474928e+00 1.700000e+00
    endloop
  endfacet
  facet normal -3.302791e-01 9.438833e-01 0.000000e+00
    outer loop
      vertex   1.822252e+01 -6.474928e+00 1.000000e+00
      vertex   1.822252e+01 -6.474928e+00 1.700000e+00
      vertex   1.843388e+01 -6.400969e+00 1.000000e+00
    endloop
  endfacet
  facet normal -3.302791e-01 9.438833e-01 0.000000e+00
    outer loop
      vertex   1.843388e+01 -6.400969e+00 1.000000e+00
      vertex   1.822252e+01 -6.474928e+00 1.700000e+00
      vertex   1.843388e+01 -6.400969e+00 1.700000e+00
    endloop
  endfacet
  facet normal -5.320321e-01 8.467242e-01 0.000000e+00
    outer loop
      vertex   1.843388e+01 -6.400969e+00 1.000000e+00
      vertex   1.843388e+01 -6.400969e+00 1.700000e+00
      vertex   1.862349e+01 -6.281831e+00 1.000000e+00
    endloop
  endfacet
  facet normal -5.320321e-01 8.467242e-01 0.000000e+00
    outer loop
      vertex   1.862349e+01 -6.281831e+00 1.000000e+00
      vertex   1.843388e+01 -6.400969e+00 1.700000e+00
      vertex   1.862349e+01 -6.281831e+00 1.700000e+00
    endloop
  endfacet
  facet normal -7.071068e-01 7.071068e-01 0.000000e+00
    outer loop
      vertex   1.862349e+01 -6.281831e+00 1.000000e+00
      vertex   1.862349e+01 -6.281831e+00 1.700000e+00
      vertex   1.878183e+01 -6.123490e+00 1.000000e+00
    endloop
  endfacet
  facet normal -7.071068e-01 7.071068e-01 0.000000e+00
    outer loop
      vertex   1.878183e+01 -6.123490e+00 1.000000e+00
      vertex   1.862349e+01 -6.281831e+00 1.700000e+00
      vertex   1.878183e+01 -6.123490e+00 1.700000e+00
    endloop
  endfacet
  facet normal -8.467242e-01 5.320321e-01 0.000000e+00
    outer loop
      vertex   1.878183e+01 -6.123490e+00 1.000000e+00
      vertex   1.878183e+01 -6.123490e+00 1.700000e+00
      vertex   1.890097e+01 -5.933884e+00 1.000000e+00
    endloop
  endfacet
  facet normal -8.467242e-01 5.320321e-01 0.000000e+00
    outer loop
      vertex   1.890097e+01 -5.933884e+00 1.000000e+00
      vertex   1.878183e+01 -6.123490e+00 1.700000e+00
      vertex   1.890097e+01 -5.933884e+00 1.700000e+00
    endloop
  endfacet
  facet normal -9.438833e-01 3.302791e-01 0.000000e+00
    outer loop
      vertex   1.890097e+01 -5.933884e+00 1.000000e+00
      vertex   1.890097e+01 -5.933884e+00 1.700000e+00
      vertex   1.897493e+01 -5.722521e+00 1.000000e+00
    endloop
  endfacet
  facet normal -9.438833e-01 3.302791e-01 0.000000e+00
    outer loop
      vertex   1.897493e+01 -5.722521e+00 1.000000e+00
      vertex   1.890097e+01 -5.933884e+00 1.700000e+00
      vertex   1.897493e+01 -5.722521e+00 1.700000e+00
    endloop
  endfacet
  facet normal -9.937122e-01 1.119645e-01 0.000000e+00
    outer loop
      vertex   1.897493e+01 -5.722521e+00 1.000000e+00
      vertex   1.897493e+01 -5.722521e+00 1.700000e+00
      vertex   1.900000e+01 -5.500000e+00 1.000000e+00
    endloop
  endfacet
  facet normal -9.937122e-01 1.119645e-01 0.000000e+00
    outer loop
      vertex   1.900000e+01 -5.500000e+00 1.000000e+00
      vertex   1.897493e+01 -5.722521e+00 1.700000e+00
      vertex   1.900000e+01 -5.500000e+00 1.700000e+00
    endloop
  endfacet
  facet normal -1.000000e+00 0.000000e+00 0.000000e+00
    outer loop
      vertex   -2.000000e+01 -5.500000e+00 1.700000e+00
      vertex   -2.000000e+01 5.500000e+00 1.700000e+00
      vertex   -2.000000e+01 -5.500000e+00 0.000000e+00
    endloop
  endfacet
  facet normal -1.000000e+00 0.000000e+00 0.000000e+00
    outer loop
      vertex   -2.000000e+01 -5.500000e+00 0.000000e+00
      vertex   -2.000000e+01 5.500000e+00 1.700000e+00
      vertex   -2.000000e+01 5.500000e+00 0.000000e+00
    endloop
  endfacet
  facet normal -9.969173e-01 7.845910e-02 0.000000e+00
    outer loop
      vertex   -2.000000e+01 5.500000e+00 0.000000e+00
      vertex   -2.000000e+01 5.500000e+00 1.700000e+00
      vertex   -1.997538e+01 5.812869e+00 0.000000e+00
    endloop
  endfacet
  facet normal -9.969173e-01 7.845910e-02 0.000000e+00
    outer loop
      vertex   -1.997538e+01 5.812869e+00 0.000000e+00
      vertex   -2.000000e+01 5.500000e+00 1.700000e+00
      vertex   -1.997538e+01 5.812869e+00 1.700000e+00
    endloop
  endfacet
  facet normal -9.723699e-01 2.334454e-01 0.000000e+00
    outer loop
      vertex   -1.997538e+01 5.812869e+00 0.000000e+00
      vertex   -1.997538e+01 5.812869e+00 1.700000e+00
      vertex   -1.990211e+01 6.118034e+00 0.000000e+00
    endloop
  endfacet
  facet normal -9.723699e-01 2.334454e-01 0.000000e+00
    outer loop
      vertex   -1.990211e+01 6.118034e+00 0.000000e+00
      vertex   -1.997538e+01 5.812869e+00 1.700000e+00
      vertex   -1.990211e+01 6.118034e+00 1.700000e+00
    endloop
  endfacet
  facet normal -9.238795e-01 3.826834e-01 0.000000e+00
    outer loop
      vertex   -1.990211e+01 6.118034e+00 0.000000e+00
      vertex   -1.990211e+01 6.118034e+00 1.700000e+00
      vertex   -1.978201e+01 6.407981e+00 0.000000e+00
    endloop
  endfacet
  facet normal -9.238795e-01 3.826834e-01 -3.998720e-16
    outer loop
      vertex   -1.978201e+01 6.407981e+00 0.000000e+00
      vertex   -1.990211e+01 6.118034e+00 1.700000e+00
      vertex   -1.978201e+01 6.407981e+00 1.700000e+00
    endloop
  endfacet
  facet normal -8.526402e-01 5.224986e-01 -5.459670e-16
    outer loop
      vertex   -1.978201e+01 6.407981e+00 0.000000e+00
      vertex   -1.978201e+01 6.407981e+00 1.700000e+00
      vertex   -1.961803e+01 6.675571e+00 0.000000e+00
    endloop
  endfacet
  facet normal -8.526402e-01 5.224986e-01 0.000000e+00
    outer loop
      vertex   -1.961803e+01 6.675571e+00 0.000000e+00
      vertex   -1.978201e+01 6.407981e+00 1.700000e+00
      vertex   -1.961803e+01 6.675571e+00 1.700000e+00
    endloop
  endfacet
  facet normal -7.604060e-01 6.494480e-01 0.000000e+00
    outer loop
      vertex   -1.961803e+01 6.675571e+00 0.000000e+00
      vertex   -1.961803e+01 6.675571e+00 1.700000e+00
      vertex   -1.941421e+01 6.914214e+00 0.000000e+00
    endloop
  endfacet
  facet normal -7.604060e-01 6.494480e-01 -3.393093e-16
    outer loop
      vertex   -1.941421e+01 6.914214e+00 0.000000e+00
      vertex   -1.961803e+01 6.675571e+00 1.700000e+00
      vertex   -1.941421e+01 6.914214e+00 1.700000e+00
    endloop
  endfacet
  facet normal -6.494480e-01 7.604060e-01 -3.972801e-16
    outer loop
      vertex   -1.941421e+01 6.914214e+00 0.000000e+00
      vertex   -1.941421e+01 6.914214e+00 1.700000e+00
      vertex   -1.917557e+01 7.118034e+00 0.000000e+00
    endloop
  endfacet
  facet normal -6.494480e-01 7.604060e-01 9.599569e-16
    outer loop
      vertex   -1.917557e+01 7.118034e+00 0.000000e+00
      vertex   -1.941421e+01 6.914214e+00 1.700000e+00
      vertex   -1.917557e+01 7.118034e+00 1.700000e+00
    endloop
  endfacet
  facet normal -5.224986e-01 8.526402e-01 6.464654e-16
    outer loop
      vertex   -1.917557e+01 7.118034e+00 0.000000e+00
      vertex   -1.917557e+01 7.118034e+00 1.700000e+00
      vertex   -1.890798e+01 7.282013e+00 0.000000e+00
    endloop
  endfacet
  facet normal -5.224986e-01 8.526402e-01 0.000000e+00
    outer loop
      vertex   -1.890798e+01 7.282013e+00 0.000000e+00
      vertex   -1.917557e+01 7.118034e+00 1.700000e+00
      vertex   -1.890798e+01 7.282013e+00 1.700000e+00
    endloop
  endfacet
  facet normal -3.826834e-01 9.238795e-01 0.000000e+00
    outer loop
      vertex   -1.890798e+01 7.282013e+00 0.000000e+00
      vertex   -1.890798e+01 7.282013e+00 1.700000e+00
      vertex   -1.861803e+01 7.402113e+00 0.000000e+00
    endloop
  endfacet
  facet normal -3.826834e-01 9.238795e-01 7.997439e-16
    outer loop
      vertex   -1.861803e+01 7.402113e+00 0.000000e+00
      vertex   -1.890798e+01 7.282013e+00 1.700000e+00
      vertex   -1.861803e+01 7.402113e+00 1.700000e+00
    endloop
  endfacet
  facet normal -2.334454e-01 9.723699e-01 4.878615e-16
    outer loop
      vertex   -1.861803e+01 7.402113e+00 0.000000e+00
      vertex   -1.861803e+01 7.402113e+00 1.700000e+00
      vertex   -1.831287e+01 7.475377e+00 0.000000e+00
    endloop
  endfacet
  facet normal -2.334454e-01 9.723699e-01 0.000000e+00
    outer loop
      vertex   -1.831287e+01 7.475377e+00 0.000000e+00
      vertex   -1.861803e+01 7.402113e+00 1.700000e+00
      vertex   -1.831287e+01 7.475377e+00 1.700000e+00
    endloop
  endfacet
  facet normal -7.845910e-02 9.969173e-01 0.000000e+00
    outer loop
      vertex   -1.831287e+01 7.475377e+00 0.000000e+00
      vertex   -1.831287e+01 7.475377e+00 1.700000e+00
      vertex   -1.800000e+01 7.500000e+00 0.000000e+00
    endloop
  endfacet
  facet normal -7.845910e-02 9.969173e-01 1.639663e-16
    outer loop
      vertex   -1.800000e+01 7.500000e+00 0.000000e+00
      vertex   -1.831287e+01 7.475377e+00 1.700000e+00
      vertex   -1.800000e+01 7.500000e+00 1.700000e+00
    endloop
  endfacet
  facet normal -4.934325e-17 1.000000e+00 1.031191e-31
    outer loop
      vertex   -1.800000e+01 7.500000e+00 1.700000e+00
      vertex   1.800000e+01 7.500000e+00 1.700000e+00
      vertex   -1.800000e+01 7.500000e+00 0.000000e+00
    endloop
  endfacet
  facet normal -2.467162e-17 1.000000e+00 -5.224579e-16
    outer loop
      vertex   -1.800000e+01 7.500000e+00 0.000000e+00
      vertex   1.800000e+01 7.500000e+00 1.700000e+00
      vertex   1.800000e+01 7.500000e+00 0.000000e+00
    endloop
  endfacet
  facet normal 7.845910e-02 9.969173e-01 -5.208473e-16
    outer loop
      vertex   1.800000e+01 7.500000e+00 0.000000e+00
      vertex   1.800000e+01 7.500000e+00 1.700000e+00
      vertex   1.831287e+01 7.475377e+00 0.000000e+00
    endloop
  endfacet
  facet normal 7.845910e-02 9.969173e-01 -0.000000e+00
    outer loop
      vertex   1.831287e+01 7.475377e+00 0.000000e+00
      vertex   1.800000e+01 7.500000e+00 1.700000e+00
      vertex   1.831287e+01 7.475377e+00 1.700000e+00
    endloop
  endfacet
  facet normal 2.334454e-01 9.723699e-01 -0.000000e+00
    outer loop
      vertex   1.831287e+01 7.475377e+00 0.000000e+00
      vertex   1.831287e+01 7.475377e+00 1.700000e+00
      vertex   1.861803e+01 7.402113e+00 0.000000e+00
    endloop
  endfacet
  facet normal 2.334454e-01 9.723699e-01 -0.000000e+00
    outer loop
      vertex   1.861803e+01 7.402113e+00 0.000000e+00
      vertex   1.831287e+01 7.475377e+00 1.700000e+00
      vertex   1.861803e+01 7.402113e+00 1.700000e+00
    endloop
  endfacet
  facet normal 3.826834e-01 9.238795e-01 -0.000000e+00
    outer loop
      vertex   1.861803e+01 7.402113e+00 0.000000e+00
      vertex   1.861803e+01 7.402113e+00 1.700000e+00
      vertex   1.890798e+01 7.282013e+00 0.000000e+00
    endloop
  endfacet
  facet normal 3.826834e-01 9.238795e-01 -0.000000e+00
    outer loop
      vertex   1.890798e+01 7.282013e+00 0.000000e+00
      vertex   1.861803e+01 7.402113e+00 1.700000e+00
      vertex   1.890798e+01 7.282013e+00 1.700000e+00
    endloop
  endfacet
  facet normal 5.224986e-01 8.526402e-01 -0.000000e+00
    outer loop
      vertex   1.890798e+01 7.282013e+00 0.000000e+00
      vertex   1.890798e+01 7.282013e+00 1.700000e+00
      vertex   1.917557e+01 7.118034e+00 0.000000e+00
    endloop
  endfacet
  facet normal 5.224986e-01 8.526402e-01 -0.000000e+00
    outer loop
      vertex   1.917557e+01 7.118034e+00 0.000000e+00
      vertex   1.890798e+01 7.282013e+00 1.700000e+00
      vertex   1.917557e+01 7.118034e+00 1.700000e+00
    endloop
  endfacet
  facet normal 6.494480e-01 7.604060e-01 -0.000000e+00
    outer loop
      vertex   1.917557e+01 7.118034e+00 0.000000e+00
      vertex   1.917557e+01 7.118034e+00 1.700000e+00
      vertex   1.941421e+01 6.914214e+00 0.000000e+00
    endloop
  endfacet
  facet normal 6.494480e-01 7.604060e-01 9.599569e-16
    outer loop
      vertex   1.941421e+01 6.914214e+00 0.000000e+00
      vertex   1.917557e+01 7.118034e+00 1.700000e+00
      vertex   1.941421e+01 6.914214e+00 1.700000e+00
    endloop
  endfacet
  facet normal 7.604060e-01 6.494480e-01 1.249811e-15
    outer loop
      vertex   1.941421e+01 6.914214e+00 0.000000e+00
      vertex   1.941421e+01 6.914214e+00 1.700000e+00
      vertex   1.961803e+01 6.675571e+00 0.000000e+00
    endloop
  endfacet
  facet normal 7.604060e-01 6.494480e-01 -0.000000e+00
    outer loop
      vertex   1.961803e+01 6.675571e+00 0.000000e+00
      vertex   1.941421e+01 6.914214e+00 1.700000e+00
      vertex   1.961803e+01 6.675571e+00 1.700000e+00
    endloop
  endfacet
  facet normal 8.526402e-01 5.224986e-01 -0.000000e+00
    outer loop
      vertex   1.961803e+01 6.675571e+00 0.000000e+00
      vertex   1.961803e+01 6.675571e+00 1.700000e+00
      vertex   1.978201e+01 6.407981e+00 0.000000e+00
    endloop
  endfacet
  facet normal 8.526402e-01 5.224986e-01 -0.000000e+00
    outer loop
      vertex   1.978201e+01 6.407981e+00 0.000000e+00
      vertex   1.961803e+01 6.675571e+00 1.700000e+00
      vertex   1.978201e+01 6.407981e+00 1.700000e+00
    endloop
  endfacet
  facet normal 9.238795e-01 3.826834e-01 -0.000000e+00
    outer loop
      vertex   1.978201e+01 6.407981e+00 0.000000e+00
      vertex   1.978201e+01 6.407981e+00 1.700000e+00
      vertex   1.990211e+01 6.118034e+00 0.000000e+00
    endloop
  endfacet
  facet normal 9.238795e-01 3.826834e-01 -0.000000e+00
    outer loop
      vertex   1.990211e+01 6.118034e+00 0.000000e+00
      vertex   1.978201e+01 6.407981e+00 1.700000e+00
      vertex   1.990211e+01 6.118034e+00 1.700000e+00
    endloop
  endfacet
  facet normal 9.723699e-01 2.334454e-01 -0.000000e+00
    outer loop
      vertex   1.990211e+01 6.118034e+00 0.000000e+00
      vertex   1.990211e+01 6.118034e+00 1.700000e+00
      vertex   1.997538e+01 5.812869e+00 0.000000e+00
    endloop
  endfacet
  facet normal 9.723699e-01 2.334454e-01 -0.000000e+00
    outer loop
      vertex   1.997538e+01 5.812869e+00 0.000000e+00
      vertex   1.990211e+01 6.118034e+00 1.700000e+00
      vertex   1.997538e+01 5.812869e+00 1.700000e+00
    endloop
  endfacet
  facet normal 9.969173e-01 7.845910e-02 -0.000000e+00
    outer loop
      vertex   1.997538e+01 5.812869e+00 0.000000e+00
      vertex   1.997538e+01 5.812869e+00 1.700000e+00
      vertex   2.000000e+01 5.500000e+00 0.000000e+00
    endloop
  endfacet
  facet normal 9.969173e-01 7.845910e-02 -0.000000e+00
    outer loop
      vertex   2.000000e+01 5.500000e+00 0.000000e+00
      vertex   1.997538e+01 5.812869e+00 1.700000e+00
      vertex   2.000000e+01 5.500000e+00 1.700000e+00
    endloop
  endfacet
  facet normal 0.000000e+00 -1.000000e+00 2.537653e-15
    outer loop
      vertex   1.800000e+01 6.500000e+00 1.700000e+00
      vertex   -1.800000e+01 6.500000e+00 1.700000e+00
      vertex   1.800000e+01 6.500000e+00 1.000000e+00
    endloop
  endfacet
  facet normal 0.000000e+00 -1.000000e+00 2.537653e-15
    outer loop
      vertex   1.800000e+01 6.500000e+00 1.000000e+00
      vertex   -1.800000e+01 6.500000e+00 1.700000e+00
      vertex   -1.800000e+01 6.500000e+00 1.000000e+00
    endloop
  endfacet
  facet normal -9.937122e-01 -1.119645e-01 -2.841269e-16
    outer loop
      vertex   1.900000e+01 5.500000e+00 1.000000e+00
      vertex   1.900000e+01 5.500000e+00 1.700000e+00
      vertex   1.897493e+01 5.722521e+00 1.000000e+00
    endloop
  endfacet
  facet normal -9.937122e-01 -1.119645e-01 0.000000e+00
    outer loop
      vertex   1.897493e+01 5.722521e+00 1.000000e+00
      vertex   1.900000e+01 5.500000e+00 1.700000e+00
      vertex   1.897493e+01 5.722521e+00 1.700000e+00
    endloop
  endfacet
  facet normal -9.438833e-01 -3.302791e-01 0.000000e+00
    outer loop
      vertex   1.897493e+01 5.722521e+00 1.000000e+00
      vertex   1.897493e+01 5.722521e+00 1.700000e+00
      vertex   1.890097e+01 5.933884e+00 1.000000e+00
    endloop
  endfacet
  facet normal -9.438833e-01 -3.302791e-01 0.000000e+00
    outer loop
      vertex   1.890097e+01 5.933884e+00 1.000000e+00
      vertex   1.897493e+01 5.722521e+00 1.700000e+00
      vertex   1.890097e+01 5.933884e+00 1.700000e+00
    endloop
  endfacet
  facet normal -8.467242e-01 -5.320321e-01 0.000000e+00
    outer loop
      vertex   1.890097e+01 5.933884e+00 1.000000e+00
      vertex   1.890097e+01 5.933884e+00 1.700000e+00
      vertex   1.878183e+01 6.123490e+00 1.000000e+00
    endloop
  endfacet
  facet normal -8.467242e-01 -5.320321e-01 4.297384e-15
    outer loop
      vertex   1.878183e+01 6.123490e+00 1.000000e+00
      vertex   1.890097e+01 5.933884e+00 1.700000e+00
      vertex   1.878183e+01 6.123490e+00 1.700000e+00
    endloop
  endfacet
  facet normal -7.071068e-01 -7.071068e-01 3.588783e-15
    outer loop
      vertex   1.878183e+01 6.123490e+00 1.000000e+00
      vertex   1.878183e+01 6.123490e+00 1.700000e+00
      vertex   1.862349e+01 6.281831e+00 1.000000e+00
    endloop
  endfacet
  facet normal -7.071068e-01 -7.071068e-01 0.000000e+00
    outer loop
      vertex   1.862349e+01 6.281831e+00 1.000000e+00
      vertex   1.878183e+01 6.123490e+00 1.700000e+00
      vertex   1.862349e+01 6.281831e+00 1.700000e+00
    endloop
  endfacet
  facet normal -5.320321e-01 -8.467242e-01 0.000000e+00
    outer loop
      vertex   1.862349e+01 6.281831e+00 1.000000e+00
      vertex   1.862349e+01 6.281831e+00 1.700000e+00
      vertex   1.843388e+01 6.400969e+00 1.000000e+00
    endloop
  endfacet
  facet normal -5.320321e-01 -8.467242e-01 0.000000e+00
    outer loop
      vertex   1.843388e+01 6.400969e+00 1.000000e+00
      vertex   1.862349e+01 6.281831e+00 1.700000e+00
      vertex   1.843388e+01 6.400969e+00 1.700000e+00
    endloop
  endfacet
  facet normal -3.302791e-01 -9.438833e-01 0.000000e+00
    outer loop
      vertex   1.843388e+01 6.400969e+00 1.000000e+00
      vertex   1.843388e+01 6.400969e+00 1.700000e+00
      vertex   1.822252e+01 6.474928e+00 1.000000e+00
    endloop
  endfacet
  facet normal -3.302791e-01 -9.438833e-01 0.000000e+00
    outer loop
      vertex   1.822252e+01 6.474928e+00 1.000000e+00
      vertex   1.843388e+01 6.400969e+00 1.700000e+00
      vertex   1.822252e+01 6.474928e+00 1.700000e+00
    endloop
  endfacet
  facet normal -1.119645e-01 -9.937122e-01 0.000000e+00
    outer loop
      vertex   1.822252e+01 6.474928e+00 1.000000e+00
      vertex   1.822252e+01 6.474928e+00 1.700000e+00
      vertex   1.800000e+01 6.500000e+00 1.000000e+00
    endloop
  endfacet
  facet normal -1.119645e-01 -9.937122e-01 2.521696e-15
    outer loop
      vertex   1.800000e+01 6.500000e+00 1.000000e+00
      vertex   1.822252e+01 6.474928e+00 1.700000e+00
      vertex   1.800000e+01 6.500000e+00 1.700000e+00
    endloop
  endfacet
  facet normal -1.000000e+00 0.000000e+00 0.000000e+00
    outer loop
      vertex   1.900000e+01 -5.500000e+00 1.700000e+00
      vertex   1.900000e+01 5.500000e+00 1.700000e+00
      vertex   1.900000e+01 -5.500000e+00 1.000000e+00
    endloop
  endfacet
  facet normal -1.000000e+00 0.000000e+00 0.000000e+00
    outer loop
      vertex   1.900000e+01 -5.500000e+00 1.000000e+00
      vertex   1.900000e+01 5.500000e+00 1.700000e+00
      vertex   1.900000e+01 5.500000e+00 1.000000e+00
    endloop
  endfacet
  facet normal 1.119645e-01 -9.937122e-01 3.089950e-15
    outer loop
      vertex   -1.800000e+01 6.500000e+00 1.000000e+00
      vertex   -1.800000e+01 6.500000e+00 1.700000e+00
      vertex   -1.822252e+01 6.474928e+00 1.000000e+00
    endloop
  endfacet
  facet normal 1.119645e-01 -9.937122e-01 5.682539e-16
    outer loop
      vertex   -1.822252e+01 6.474928e+00 1.000000e+00
      vertex   -1.800000e+01 6.500000e+00 1.700000e+00
      vertex   -1.822252e+01 6.474928e+00 1.700000e+00
    endloop
  endfacet
  facet normal 3.302791e-01 -9.438833e-01 1.676267e-15
    outer loop
      vertex   -1.822252e+01 6.474928e+00 1.000000e+00
      vertex   -1.822252e+01 6.474928e+00 1.700000e+00
      vertex   -1.843388e+01 6.400969e+00 1.000000e+00
    endloop
  endfacet
  facet normal 3.302791e-01 -9.438833e-01 4.786431e-16
    outer loop
      vertex   -1.843388e+01 6.400969e+00 1.000000e+00
      vertex   -1.822252e+01 6.474928e+00 1.700000e+00
      vertex   -1.843388e+01 6.400969e+00 1.700000e+00
    endloop
  endfacet
  facet normal 5.320321e-01 -8.467242e-01 1.625879e-15
    outer loop
      vertex   -1.843388e+01 6.400969e+00 1.000000e+00
      vertex   -1.843388e+01 6.400969e+00 1.700000e+00
      vertex   -1.862349e+01 6.281831e+00 1.000000e+00
    endloop
  endfacet
  facet normal 5.320321e-01 -8.467242e-01 -1.074346e-15
    outer loop
      vertex   -1.862349e+01 6.281831e+00 1.000000e+00
      vertex   -1.843388e+01 6.400969e+00 1.700000e+00
      vertex   -1.862349e+01 6.281831e+00 1.700000e+00
    endloop
  endfacet
  facet normal 7.071068e-01 -7.071068e-01 -8.971957e-16
    outer loop
      vertex   -1.862349e+01 6.281831e+00 1.000000e+00
      vertex   -1.862349e+01 6.281831e+00 1.700000e+00
      vertex   -1.878183e+01 6.123490e+00 1.000000e+00
    endloop
  endfacet
  facet normal 7.071068e-01 -7.071068e-01 3.588783e-15
    outer loop
      vertex   -1.878183e+01 6.123490e+00 1.000000e+00
      vertex   -1.862349e+01 6.281831e+00 1.700000e+00
      vertex   -1.878183e+01 6.123490e+00 1.700000e+00
    endloop
  endfacet
  facet normal 8.467242e-01 -5.320321e-01 4.297384e-15
    outer loop
      vertex   -1.878183e+01 6.123490e+00 1.000000e+00
      vertex   -1.878183e+01 6.123490e+00 1.700000e+00
      vertex   -1.890097e+01 5.933884e+00 1.000000e+00
    endloop
  endfacet
  facet normal 8.467242e-01 -5.320321e-01 4.297384e-15
    outer loop
      vertex   -1.890097e+01 5.933884e+00 1.000000e+00
      vertex   -1.878183e+01 6.123490e+00 1.700000e+00
      vertex   -1.890097e+01 5.933884e+00 1.700000e+00
    endloop
  endfacet
  facet normal 9.438833e-01 -3.302791e-01 4.790496e-15
    outer loop
      vertex   -1.890097e+01 5.933884e+00 1.000000e+00
      vertex   -1.890097e+01 5.933884e+00 1.700000e+00
      vertex   -1.897493e+01 5.722521e+00 1.000000e+00
    endloop
  endfacet
  facet normal 9.438833e-01 -3.302791e-01 -4.190668e-16
    outer loop
      vertex   -1.897493e+01 5.722521e+00 1.000000e+00
      vertex   -1.890097e+01 5.933884e+00 1.700000e+00
      vertex   -1.897493e+01 5.722521e+00 1.700000e+00
    endloop
  endfacet
  facet normal 9.937122e-01 -1.119645e-01 -1.420635e-16
    outer loop
      vertex   -1.897493e+01 5.722521e+00 1.000000e+00
      vertex   -1.897493e+01 5.722521e+00 1.700000e+00
      vertex   -1.900000e+01 5.500000e+00 1.000000e+00
    endloop
  endfacet
  facet normal 9.937122e-01 -1.119645e-01 -2.841269e-16
    outer loop
      vertex   -1.900000e+01 5.500000e+00 1.000000e+00
      vertex   -1.897493e+01 5.722521e+00 1.700000e+00
      vertex   -1.900000e+01 5.500000e+00 1.700000e+00
    endloop
  endfacet
  facet normal 1.000000e+00 3.229740e-16 0.000000e+00
    outer loop
      vertex   2.000000e+01 5.500000e+00 1.700000e+00
      vertex   2.000000e+01 -5.500000e+00 1.700000e+00
      vertex   2.000000e+01 5.500000e+00 0.000000e+00
    endloop
  endfacet
  facet normal 1.000000e+00 3.229740e-16 0.000000e+00
    outer loop
      vertex   2.000000e+01 5.500000e+00 0.000000e+00
      vertex   2.000000e+01 -5.500000e+00 1.700000e+00
      vertex   2.000000e+01 -5.500000e+00 0.000000e+00
    endloop
  endfacet
  facet normal 9.969173e-01 -7.845910e-02 0.000000e+00
    outer loop
      vertex   2.000000e+01 -5.500000e+00 0.000000e+00
      vertex   2.000000e+01 -5.500000e+00 1.700000e+00
      vertex   1.997538e+01 -5.812869e+00 0.000000e+00
    endloop
  endfacet
  facet normal 9.969173e-01 -7.845910e-02 0.000000e+00
    outer loop
      vertex   1.997538e+01 -5.812869e+00 0.000000e+00
      vertex   2.000000e+01 -5.500000e+00 1.700000e+00
      vertex   1.997538e+01 -5.812869e+00 1.700000e+00
    endloop
  endfacet
  facet normal 9.723699e-01 -2.334454e-01 0.000000e+00
    outer loop
      vertex   1.997538e+01 -5.812869e+00 0.000000e+00
      vertex   1.997538e+01 -5.812869e+00 1.700000e+00
      vertex   1.990211e+01 -6.118034e+00 0.000000e+00
    endloop
  endfacet
  facet normal 9.723699e-01 -2.334454e-01 0.000000e+00
    outer loop
      vertex   1.990211e+01 -6.118034e+00 0.000000e+00
      vertex   1.997538e+01 -5.812869e+00 1.700000e+00
      vertex   1.990211e+01 -6.118034e+00 1.700000e+00
    endloop
  endfacet
  facet normal 9.238795e-01 -3.826834e-01 0.000000e+00
    outer loop
      vertex   1.990211e+01 -6.118034e+00 0.000000e+00
      vertex   1.990211e+01 -6.118034e+00 1.700000e+00
      vertex   1.978201e+01 -6.407981e+00 0.000000e+00
    endloop
  endfacet
  facet normal 9.238795e-01 -3.826834e-01 0.000000e+00
    outer loop
      vertex   1.978201e+01 -6.407981e+00 0.000000e+00
      vertex   1.990211e+01 -6.118034e+00 1.700000e+00
      vertex   1.978201e+01 -6.407981e+00 1.700000e+00
    endloop
  endfacet
  facet normal 8.526402e-01 -5.224986e-01 0.000000e+00
    outer loop
      vertex   1.978201e+01 -6.407981e+00 0.000000e+00
      vertex   1.978201e+01 -6.407981e+00 1.700000e+00
      vertex   1.961803e+01 -6.675571e+00 0.000000e+00
    endloop
  endfacet
  facet normal 8.526402e-01 -5.224986e-01 0.000000e+00
    outer loop
      vertex   1.961803e+01 -6.675571e+00 0.000000e+00
      vertex   1.978201e+01 -6.407981e+00 1.700000e+00
      vertex   1.961803e+01 -6.675571e+00 1.700000e+00
    endloop
  endfacet
  facet normal 7.604060e-01 -6.494480e-01 0.000000e+00
    outer loop
      vertex   1.961803e+01 -6.675571e+00 0.000000e+00
      vertex   1.961803e+01 -6.675571e+00 1.700000e+00
      vertex   1.941421e+01 -6.914214e+00 0.000000e+00
    endloop
  endfacet
  facet normal 7.604060e-01 -6.494480e-01 0.000000e+00
    outer loop
      vertex   1.941421e+01 -6.914214e+00 0.000000e+00
      vertex   1.961803e+01 -6.675571e+00 1.700000e+00
      vertex   1.941421e+01 -6.914214e+00 1.700000e+00
    endloop
  endfacet
  facet normal 6.494480e-01 -7.604060e-01 0.000000e+00
    outer loop
      vertex   1.941421e+01 -6.914214e+00 0.000000e+00
      vertex   1.941421e+01 -6.914214e+00 1.700000e+00
      vertex   1.917557e+01 -7.118034e+00 0.000000e+00
    endloop
  endfacet
  facet normal 6.494480e-01 -7.604060e-01 0.000000e+00
    outer loop
      vertex   1.917557e+01 -7.118034e+00 0.000000e+00
      vertex   1.941421e+01 -6.914214e+00 1.700000e+00
      vertex   1.917557e+01 -7.118034e+00 1.700000e+00
    endloop
  endfacet
  facet normal 5.224986e-01 -8.526402e-01 0.000000e+00
    outer loop
      vertex   1.917557e+01 -7.118034e+00 0.000000e+00
      vertex   1.917557e+01 -7.118034e+00 1.700000e+00
      vertex   1.890798e+01 -7.282013e+00 0.000000e+00
    endloop
  endfacet
  facet normal 5.224986e-01 -8.526402e-01 0.000000e+00
    outer loop
      vertex   1.890798e+01 -7.282013e+00 0.000000e+00
      vertex   1.917557e+01 -7.118034e+00 1.700000e+00
      vertex   1.890798e+01 -7.282013e+00 1.700000e+00
    endloop
  endfacet
  facet normal 3.826834e-01 -9.238795e-01 0.000000e+00
    outer loop
      vertex   1.890798e+01 -7.282013e+00 0.000000e+00
      vertex   1.890798e+01 -7.282013e+00 1.700000e+00
      vertex   1.861803e+01 -7.402113e+00 0.000000e+00
    endloop
  endfacet
  facet normal 3.826834e-01 -9.238795e-01 0.000000e+00
    outer loop
      vertex   1.861803e+01 -7.402113e+00 0.000000e+00
      vertex   1.890798e+01 -7.282013e+00 1.700000e+00
      vertex   1.861803e+01 -7.402113e+00 1.700000e+00
    endloop
  endfacet
  facet normal 2.334454e-01 -9.723699e-01 0.000000e+00
    outer loop
      vertex   1.861803e+01 -7.402113e+00 0.000000e+00
      vertex   1.861803e+01 -7.402113e+00 1.700000e+00
      vertex   1.831287e+01 -7.475377e+00 0.000000e+00
    endloop
  endfacet
  facet normal 2.334454e-01 -9.723699e-01 0.000000e+00
    outer loop
      vertex   1.831287e+01 -7.475377e+00 0.000000e+00
      vertex   1.861803e+01 -7.402113e+00 1.700000e+00
      vertex   1.831287e+01 -7.475377e+00 1.700000e+00
    endloop
  endfacet
  facet normal 7.845910e-02 -9.969173e-01 0.000000e+00
    outer loop
      vertex   1.831287e+01 -7.475377e+00 0.000000e+00
      vertex   1.831287e+01 -7.475377e+00 1.700000e+00
      vertex   1.800000e+01 -7.500000e+00 0.000000e+00
    endloop
  endfacet
  facet normal 7.845910e-02 -9.969173e-01 0.000000e+00
    outer loop
      vertex   1.800000e+01 -7.500000e+00 0.000000e+00
      vertex   1.831287e+01 -7.475377e+00 1.700000e+00
      vertex   1.800000e+01 -7.500000e+00 1.700000e+00
    endloop
  endfacet
  facet normal -0.000000e+00 -1.000000e+00 -0.000000e+00
    outer loop
      vertex   1.800000e+01 -7.500000e+00 1.700000e+00
      vertex   -1.800000e+01 -7.500000e+00 1.700000e+00
      vertex   1.800000e+01 -7.500000e+00 0.000000e+00
    endloop
  endfacet
  facet normal 0.000000e+00 -1.000000e+00 0.000000e+00
    outer loop
      vertex   1.800000e+01 -7.500000e+00 0.000000e+00
      vertex   -1.800000e+01 -7.500000e+00 1.700000e+00
      vertex   -1.800000e+01 -7.500000e+00 0.000000e+00
    endloop
  endfacet
  facet normal -7.845910e-02 -9.969173e-01 0.000000e+00
    outer loop
      vertex   -1.800000e+01 -7.500000e+00 0.000000e+00
      vertex   -1.800000e+01 -7.500000e+00 1.700000e+00
      vertex   -1.831287e+01 -7.475377e+00 0.000000e+00
    endloop
  endfacet
  facet normal -7.845910e-02 -9.969173e-01 0.000000e+00
    outer loop
      vertex   -1.831287e+01 -7.475377e+00 0.000000e+00
      vertex   -1.800000e+01 -7.500000e+00 1.700000e+00
      vertex   -1.831287e+01 -7.475377e+00 1.700000e+00
    endloop
  endfacet
  facet normal -2.334454e-01 -9.723699e-01 0.000000e+00
    outer loop
      vertex   -1.831287e+01 -7.475377e+00 0.000000e+00
      vertex   -1.831287e+01 -7.475377e+00 1.700000e+00
      vertex   -1.861803e+01 -7.402113e+00 0.000000e+00
    endloop
  endfacet
  facet normal -2.334454e-01 -9.723699e-01 0.000000e+00
    outer loop
      vertex   -1.861803e+01 -7.402113e+00 0.000000e+00
      vertex   -1.831287e+01 -7.475377e+00 1.700000e+00
      vertex   -1.861803e+01 -7.402113e+00 1.700000e+00
    endloop
  endfacet
  facet normal -3.826834e-01 -9.238795e-01 0.000000e+00
    outer loop
      vertex   -1.861803e+01 -7.402113e+00 0.000000e+00
      vertex   -1.861803e+01 -7.402113e+00 1.700000e+00
      vertex   -1.890798e+01 -7.282013e+00 0.000000e+00
    endloop
  endfacet
  facet normal -3.826834e-01 -9.238795e-01 0.000000e+00
    outer loop
      vertex   -1.890798e+01 -7.282013e+00 0.000000e+00
      vertex   -1.861803e+01 -7.402113e+00 1.700000e+00
      vertex   -1.890798e+01 -7.282013e+00 1.700000e+00
    endloop
  endfacet
  facet normal -5.224986e-01 -8.526402e-01 0.000000e+00
    outer loop
      vertex   -1.890798e+01 -7.282013e+00 0.000000e+00
      vertex   -1.890798e+01 -7.282013e+00 1.700000e+00
      vertex   -1.917557e+01 -7.118034e+00 0.000000e+00
    endloop
  endfacet
  facet normal -5.224986e-01 -8.526402e-01 0.000000e+00
    outer loop
      vertex   -1.917557e+01 -7.118034e+00 0.000000e+00
      vertex   -1.890798e+01 -7.282013e+00 1.700000e+00
      vertex   -1.917557e+01 -7.118034e+00 1.700000e+00
    endloop
  endfacet
  facet normal -6.494480e-01 -7.604060e-01 0.000000e+00
    outer loop
      vertex   -1.917557e+01 -7.118034e+00 0.000000e+00
      vertex   -1.917557e+01 -7.118034e+00 1.700000e+00
      vertex   -1.941421e+01 -6.914214e+00 0.000000e+00
    endloop
  endfacet
  facet normal -6.494480e-01 -7.604060e-01 0.000000e+00
    outer loop
      vertex   -1.941421e+01 -6.914214e+00 0.000000e+00
      vertex   -1.917557e+01 -7.118034e+00 1.700000e+00
      vertex   -1.941421e+01 -6.914214e+00 1.700000e+00
    endloop
  endfacet
  facet normal -7.604060e-01 -6.494480e-01 0.000000e+00
    outer loop
      vertex   -1.941421e+01 -6.914214e+00 0.000000e+00
      vertex   -1.941421e+01 -6.914214e+00 1.700000e+00
      vertex   -1.961803e+01 -6.675571e+00 0.000000e+00
    endloop
  endfacet
  facet normal -7.604060e-01 -6.494480e-01 0.000000e+00
    outer loop
      vertex   -1.961803e+01 -6.675571e+00 0.000000e+00
      vertex   -1.941421e+01 -6.914214e+00 1.700000e+00
      vertex   -1.961803e+01 -6.675571e+00 1.700000e+00
    endloop
  endfacet
  facet normal -8.526402e-01 -5.224986e-01 0.000000e+00
    outer loop
      vertex   -1.961803e+01 -6.675571e+00 0.000000e+00
      vertex   -1.961803e+01 -6.675571e+00 1.700000e+00
      vertex   -1.978201e+01 -6.407981e+00 0.000000e+00
    endloop
  endfacet
  facet normal -8.526402e-01 -5.224986e-01 -2.729835e-16
    outer loop
      vertex   -1.978201e+01 -6.407981e+00 0.000000e+00
      vertex   -1.961803e+01 -6.675571e+00 1.700000e+00
      vertex   -1.978201e+01 -6.407981e+00 1.700000e+00
    endloop
  endfacet
  facet normal -9.238795e-01 -3.826834e-01 -1.999360e-16
    outer loop
      vertex   -1.978201e+01 -6.407981e+00 0.000000e+00
      vertex   -1.978201e+01 -6.407981e+00 1.700000e+00
      vertex   -1.990211e+01 -6.118034e+00 0.000000e+00
    endloop
  endfacet
  facet normal -9.238795e-01 -3.826834e-01 0.000000e+00
    outer loop
      vertex   -1.990211e+01 -6.118034e+00 0.000000e+00
      vertex   -1.978201e+01 -6.407981e+00 1.700000e+00
      vertex   -1.990211e+01 -6.118034e+00 1.700000e+00
    endloop
  endfacet
  facet normal -9.723699e-01 -2.334454e-01 0.000000e+00
    outer loop
      vertex   -1.990211e+01 -6.118034e+00 0.000000e+00
      vertex   -1.990211e+01 -6.118034e+00 1.700000e+00
      vertex   -1.997538e+01 -5.812869e+00 0.000000e+00
    endloop
  endfacet
  facet normal -9.723699e-01 -2.334454e-01 0.000000e+00
    outer loop
      vertex   -1.997538e+01 -5.812869e+00 0.000000e+00
      vertex   -1.990211e+01 -6.118034e+00 1.700000e+00
      vertex   -1.997538e+01 -5.812869e+00 1.700000e+00
    endloop
  endfacet
  facet normal -9.969173e-01 -7.845910e-02 0.000000e+00
    outer loop
      vertex   -1.997538e+01 -5.812869e+00 0.000000e+00
      vertex   -1.997538e+01 -5.812869e+00 1.700000e+00
      vertex   -2.000000e+01 -5.500000e+00 0.000000e+00
    endloop
  endfacet
  facet normal -9.969173e-01 -7.845910e-02 0.000000e+00
    outer loop
      vertex   -2.000000e+01 -5.500000e+00 0.000000e+00
      vertex   -1.997538e+01 -5.812869e+00 1.700000e+00
      vertex   -2.000000e+01 -5.500000e+00 1.700000e+00
    endloop
  endfacet
  facet normal 0.000000e+00 -0.000000e+00 1.000000e+00
    outer loop
      vertex   1.822252e+01 -6.474928e+00 1.000000e+00
      vertex   1.843388e+01 -6.400969e+00 1.000000e+00
      vertex   1.800000e+01 -6.500000e+00 1.000000e+00
    endloop
  endfacet
  facet normal 0.000000e+00 0.000000e+00 1.000000e+00
    outer loop
      vertex   1.800000e+01 -6.500000e+00 1.000000e+00
      vertex   1.843388e+01 -6.400969e+00 1.000000e+00
      vertex   1.862349e+01 -6.281831e+00 1.000000e+00
    endloop
  endfacet
  facet normal 0.000000e+00 0.000000e+00 1.000000e+00
    outer loop
      vertex   1.800000e+01 -6.500000e+00 1.000000e+00
      vertex   1.862349e+01 -6.281831e+00 1.000000e+00
      vertex   1.878183e+01 -6.123490e+00 1.000000e+00
    endloop
  endfacet
  facet normal 0.000000e+00 -0.000000e+00 1.000000e+00
    outer loop
      vertex   1.878183e+01 -6.123490e+00 1.000000e+00
      vertex   1.890097e+01 -5.933884e+00 1.000000e+00
      vertex   1.800000e+01 -6.500000e+00 1.000000e+00
    endloop
  endfacet
  facet normal 0.000000e+00 0.000000e+00 1.000000e+00
    outer loop
      vertex   1.800000e+01 -6.500000e+00 1.000000e+00
      vertex   1.890097e+01 -5.933884e+00 1.000000e+00
      vertex   1.897493e+01 -5.722521e+00 1.000000e+00
    endloop
  endfacet
  facet normal 0.000000e+00 0.000000e+00 1.000000e+00
    outer loop
      vertex   1.800000e+01 -6.500000e+00 1.000000e+00
      vertex   1.897493e+01 -5.722521e+00 1.000000e+00
      vertex   1.900000e+01 -5.500000e+00 1.000000e+00
    endloop
  endfacet
  facet normal 0.000000e+00 0.000000e+00 1.000000e+00
    outer loop
      vertex   1.900000e+01 5.500000e+00 1.000000e+00
      vertex   -1.900000e+01 5.500000e+00 1.000000e+00
      vertex   1.900000e+01 -5.500000e+00 1.000000e+00
    endloop
  endfacet
  facet normal 0.000000e+00 0.000000e+00 1.000000e+00
    outer loop
      vertex   1.900000e+01 -5.500000e+00 1.000000e+00
      vertex   -1.900000e+01 5.500000e+00 1.000000e+00
      vertex   -1.900000e+01 -5.500000e+00 1.000000e+00
    endloop
  endfacet
  facet normal 0.000000e+00 0.000000e+00 1.000000e+00
    outer loop
      vertex   1.900000e+01 -5.500000e+00 1.000000e+00
      vertex   -1.900000e+01 -5.500000e+00 1.000000e+00
      vertex   1.800000e+01 -6.500000e+00 1.000000e+00
    endloop
  endfacet
  facet normal 0.000000e+00 0.000000e+00 1.000000e+00
    outer loop
      vertex   1.800000e+01 -6.500000e+00 1.000000e+00
      vertex   -1.900000e+01 -5.500000e+00 1.000000e+00
      vertex   -1.800000e+01 -6.500000e+00 1.000000e+00
    endloop
  endfacet
  facet normal 0.000000e+00 0.000000e+00 1.000000e+00
    outer loop
      vertex   -1.800000e+01 -6.500000e+00 1.000000e+00
      vertex   -1.900000e+01 -5.500000e+00 1.000000e+00
      vertex   -1.897493e+01 -5.722521e+00 1.000000e+00
    endloop
  endfacet
  facet normal 0.000000e+00 0.000000e+00 1.000000e+00
    outer loop
      vertex   -1.800000e+01 -6.500000e+00 1.000000e+00
      vertex   -1.897493e+01 -5.722521e+00 1.000000e+00
      vertex   -1.890097e+01 -5.933884e+00 1.000000e+00
    endloop
  endfacet
  facet normal 0.000000e+00 0.000000e+00 1.000000e+00
    outer loop
      vertex   1.897493e+01 5.722521e+00 1.000000e+00
      vertex   1.800000e+01 6.500000e+00 1.000000e+00
      vertex   1.900000e+01 5.500000e+00 1.000000e+00
    endloop
  endfacet
  facet normal 0.000000e+00 0.000000e+00 1.000000e+00
    outer loop
      vertex   1.900000e+01 5.500000e+00 1.000000e+00
      vertex   1.800000e+01 6.500000e+00 1.000000e+00
      vertex   -1.800000e+01 6.500000e+00 1.000000e+00
    endloop
  endfacet
  facet normal 0.000000e+00 0.000000e+00 1.000000e+00
    outer loop
      vertex   1.900000e+01 5.500000e+00 1.000000e+00
      vertex   -1.800000e+01 6.500000e+00 1.000000e+00
      vertex   -1.900000e+01 5.500000e+00 1.000000e+00
    endloop
  endfacet
  facet normal 0.000000e+00 0.000000e+00 1.000000e+00
    outer loop
      vertex   -1.900000e+01 5.500000e+00 1.000000e+00
      vertex   -1.800000e+01 6.500000e+00 1.000000e+00
      vertex   -1.897493e+01 5.722521e+00 1.000000e+00
    endloop
  endfacet
  facet normal 0.000000e+00 0.000000e+00 1.000000e+00
    outer loop
      vertex   -1.897493e+01 5.722521e+00 1.000000e+00
      vertex   -1.800000e+01 6.500000e+00 1.000000e+00
      vertex   -1.890097e+01 5.933884e+00 1.000000e+00
    endloop
  endfacet
  facet normal 0.000000e+00 0.000000e+00 1.000000e+00
    outer loop
      vertex   -1.890097e+01 5.933884e+00 1.000000e+00
      vertex   -1.800000e+01 6.500000e+00 1.000000e+00
      vertex   -1.878183e+01 6.123490e+00 1.000000e+00
    endloop
  endfacet
  facet normal 0.000000e+00 0.000000e+00 1.000000e+00
    outer loop
      vertex   -1.878183e+01 6.123490e+00 1.000000e+00
      vertex   -1.800000e+01 6.500000e+00 1.000000e+00
      vertex   -1.862349e+01 6.281831e+00 1.000000e+00
    endloop
  endfacet
  facet normal 0.000000e+00 0.000000e+00 1.000000e+00
    outer loop
      vertex   -1.862349e+01 6.281831e+00 1.000000e+00
      vertex   -1.800000e+01 6.500000e+00 1.000000e+00
      vertex   -1.843388e+01 6.400969e+00 1.000000e+00
    endloop
  endfacet
  facet normal 0.000000e+00 0.000000e+00 1.000000e+00
    outer loop
      vertex   -1.843388e+01 6.400969e+00 1.000000e+00
      vertex   -1.800000e+01 6.500000e+00 1.000000e+00
      vertex   -1.822252e+01 6.474928e+00 1.000000e+00
    endloop
  endfacet
  facet normal 0.000000e+00 0.000000e+00 1.000000e+00
    outer loop
      vertex   1.897493e+01 5.722521e+00 1.000000e+00
      vertex   1.890097e+01 5.933884e+00 1.000000e+00
      vertex   1.800000e+01 6.500000e+00 1.000000e+00
    endloop
  endfacet
  facet normal 0.000000e+00 0.000000e+00 1.000000e+00
    outer loop
      vertex   1.800000e+01 6.500000e+00 1.000000e+00
      vertex   1.890097e+01 5.933884e+00 1.000000e+00
      vertex   1.878183e+01 6.123490e+00 1.000000e+00
    endloop
  endfacet
  facet normal 0.000000e+00 0.000000e+00 1.000000e+00
    outer loop
      vertex   1.800000e+01 6.500000e+00 1.000000e+00
      vertex   1.878183e+01 6.123490e+00 1.000000e+00
      vertex   1.862349e+01 6.281831e+00 1.000000e+00
    endloop
  endfacet
  facet normal 0.000000e+00 0.000000e+00 1.000000e+00
    outer loop
      vertex   1.862349e+01 6.281831e+00 1.000000e+00
      vertex   1.843388e+01 6.400969e+00 1.000000e+00
      vertex   1.800000e+01 6.500000e+00 1.000000e+00
    endloop
  endfacet
  facet normal 0.000000e+00 0.000000e+00 1.000000e+00
    outer loop
      vertex   1.800000e+01 6.500000e+00 1.000000e+00
      vertex   1.843388e+01 6.400969e+00 1.000000e+00
      vertex   1.822252e+01 6.474928e+00 1.000000e+00
    endloop
  endfacet
  facet normal 0.000000e+00 0.000000e+00 1.000000e+00
    outer loop
      vertex   -1.890097e+01 -5.933884e+00 1.000000e+00
      vertex   -1.878183e+01 -6.123490e+00 1.000000e+00
      vertex   -1.800000e+01 -6.500000e+00 1.000000e+00
    endloop
  endfacet
  facet normal 0.000000e+00 0.000000e+00 1.000000e+00
    outer loop
      vertex   -1.800000e+01 -6.500000e+00 1.000000e+00
      vertex   -1.878183e+01 -6.123490e+00 1.000000e+00
      vertex   -1.862349e+01 -6.281831e+00 1.000000e+00
    endloop
  endfacet
  facet normal 0.000000e+00 0.000000e+00 1.000000e+00
    outer loop
      vertex   -1.800000e+01 -6.500000e+00 1.000000e+00
      vertex   -1.862349e+01 -6.281831e+00 1.000000e+00
      vertex   -1.843388e+01 -6.400969e+00 1.000000e+00
    endloop
  endfacet
  facet normal 0.000000e+00 0.000000e+00 1.000000e+00
    outer loop
      vertex   -1.843388e+01 -6.400969e+00 1.000000e+00
      vertex   -1.822252e+01 -6.474928e+00 1.000000e+00
      vertex   -1.800000e+01 -6.500000e+00 1.000000e+00
    endloop
  endfacet
  facet normal -0.000000e+00 -0.000000e+00 -1.000000e+00
    outer loop
      vertex   1.831287e+01 7.475377e+00 0.000000e+00
      vertex   1.861803e+01 7.402113e+00 0.000000e+00
      vertex   1.800000e+01 7.500000e+00 0.000000e+00
    endloop
  endfacet
  facet normal 0.000000e+00 0.000000e+00 -1.000000e+00
    outer loop
      vertex   1.800000e+01 7.500000e+00 0.000000e+00
      vertex   1.861803e+01 7.402113e+00 0.000000e+00
      vertex   1.890798e+01 7.282013e+00 0.000000e+00
    endloop
  endfacet
  facet normal 0.000000e+00 0.000000e+00 -1.000000e+00
    outer loop
      vertex   1.800000e+01 7.500000e+00 0.000000e+00
      vertex   1.890798e+01 7.282013e+00 0.000000e+00
      vertex   1.917557e+01 7.118034e+00 0.000000e+00
    endloop
  endfacet
  facet normal -0.000000e+00 -0.000000e+00 -1.000000e+00
    outer loop
      vertex   1.917557e+01 7.118034e+00 0.000000e+00
      vertex   1.941421e+01 6.914214e+00 0.000000e+00
      vertex   1.800000e+01 7.500000e+00 0.000000e+00
    endloop
  endfacet
  facet normal 0.000000e+00 0.000000e+00 -1.000000e+00
    outer loop
      vertex   1.800000e+01 7.500000e+00 0.000000e+00
      vertex   1.941421e+01 6.914214e+00 0.000000e+00
      vertex   1.961803e+01 6.675571e+00 0.000000e+00
    endloop
  endfacet
  facet normal 0.000000e+00 0.000000e+00 -1.000000e+00
    outer loop
      vertex   1.800000e+01 7.500000e+00 0.000000e+00
      vertex   1.961803e+01 6.675571e+00 0.000000e+00
      vertex   1.978201e+01 6.407981e+00 0.000000e+00
    endloop
  endfacet
  facet normal -0.000000e+00 -0.000000e+00 -1.000000e+00
    outer loop
      vertex   1.978201e+01 6.407981e+00 0.000000e+00
      vertex   1.990211e+01 6.118034e+00 0.000000e+00
      vertex   1.800000e+01 7.500000e+00 0.000000e+00
    endloop
  endfacet
  facet normal 0.000000e+00 0.000000e+00 -1.000000e+00
    outer loop
      vertex   1.800000e+01 7.500000e+00 0.000000e+00
      vertex   1.990211e+01 6.118034e+00 0.000000e+00
      vertex   1.997538e+01 5.812869e+00 0.000000e+00
    endloop
  endfacet
  facet normal 0.000000e+00 0.000000e+00 -1.000000e+00
    outer loop
      vertex   1.800000e+01 7.500000e+00 0.000000e+00
      vertex   1.997538e+01 5.812869e+00 0.000000e+00
      vertex   2.000000e+01 5.500000e+00 0.000000e+00
    endloop
  endfacet
  facet normal 0.000000e+00 0.000000e+00 -1.000000e+00
    outer loop
      vertex   2.000000e+01 -5.500000e+00 0.000000e+00
      vertex   -2.000000e+01 -5.500000e+00 0.000000e+00
      vertex   2.000000e+01 5.500000e+00 0.000000e+00
    endloop
  endfacet
  facet normal -0.000000e+00 0.000000e+00 -1.000000e+00
    outer loop
      vertex   2.000000e+01 5.500000e+00 0.000000e+00
      vertex   -2.000000e+01 -5.500000e+00 0.000000e+00
      vertex   -2.000000e+01 5.500000e+00 0.000000e+00
    endloop
  endfacet
  facet normal 0.000000e+00 0.000000e+00 -1.000000e+00
    outer loop
      vertex   2.000000e+01 5.500000e+00 0.000000e+00
      vertex   -2.000000e+01 5.500000e+00 0.000000e+00
      vertex   1.800000e+01 7.500000e+00 0.000000e+00
    endloop
  endfacet
  facet normal 0.000000e+00 0.000000e+00 -1.000000e+00
    outer loop
      vertex   1.800000e+01 7.500000e+00 0.000000e+00
      vertex   -2.000000e+01 5.500000e+00 0.000000e+00
      vertex   -1.800000e+01 7.500000e+00 0.000000e+00
    endloop
  endfacet
  facet normal 0.000000e+00 0.000000e+00 -1.000000e+00
    outer loop
      vertex   -1.800000e+01 7.500000e+00 0.000000e+00
      vertex   -2.000000e+01 5.500000e+00 0.000000e+00
      vertex   -1.997538e+01 5.812869e+00 0.000000e+00
    endloop
  endfacet
  facet normal 0.000000e+00 0.000000e+00 -1.000000e+00
    outer loop
      vertex   -1.800000e+01 7.500000e+00 0.000000e+00
      vertex   -1.997538e+01 5.812869e+00 0.000000e+00
      vertex   -1.990211e+01 6.118034e+00 0.000000e+00
    endloop
  endfacet
  facet normal -0.000000e+00 0.000000e+00 -1.000000e+00
    outer loop
      vertex   1.997538e+01 -5.812869e+00 0.000000e+00
      vertex   1.800000e+01 -7.500000e+00 0.000000e+00
      vertex   2.000000e+01 -5.500000e+00 0.000000e+00
    endloop
  endfacet
  facet normal 0.000000e+00 0.000000e+00 -1.000000e+00
    outer loop
      vertex   2.000000e+01 -5.500000e+00 0.000000e+00
      vertex   1.800000e+01 -7.500000e+00 0.000000e+00
      vertex   -1.800000e+01 -7.500000e+00 0.000000e+00
    endloop
  endfacet
  facet normal -0.000000e+00 0.000000e+00 -1.000000e+00
    outer loop
      vertex   2.000000e+01 -5.500000e+00 0.000000e+00
      vertex   -1.800000e+01 -7.500000e+00 0.000000e+00
      vertex   -2.000000e+01 -5.500000e+00 0.000000e+00
    endloop
  endfacet
  facet normal 0.000000e+00 0.000000e+00 -1.000000e+00
    outer loop
      vertex   -2.000000e+01 -5.500000e+00 0.000000e+00
      vertex   -1.800000e+01 -7.500000e+00 0.000000e+00
      vertex   -1.997538e+01 -5.812869e+00 0.000000e+00
    endloop
  endfacet
  facet normal 0.000000e+00 0.000000e+00 -1.000000e+00
    outer loop
      vertex   -1.997538e+01 -5.812869e+00 0.000000e+00
      vertex   -1.800000e+01 -7.500000e+00 0.000000e+00
      vertex   -1.990211e+01 -6.118034e+00 0.000000e+00
    endloop
  endfacet
  facet normal 0.000000e+00 0.000000e+00 -1.000000e+00
    outer loop
      vertex   -1.990211e+01 -6.118034e+00 0.000000e+00
      vertex   -1.800000e+01 -7.500000e+00 0.000000e+00
      vertex   -1.978201e+01 -6.407981e+00 0.000000e+00
    endloop
  endfacet
  facet normal 0.000000e+00 0.000000e+00 -1.000000e+00
    outer loop
      vertex   -1.978201e+01 -6.407981e+00 0.000000e+00
      vertex   -1.800000e+01 -7.500000e+00 0.000000e+00
      vertex   -1.961803e+01 -6.675571e+00 0.000000e+00
    endloop
  endfacet
  facet normal 0.000000e+00 0.000000e+00 -1.000000e+00
    outer loop
      vertex   -1.961803e+01 -6.675571e+00 0.000000e+00
      vertex   -1.800000e+01 -7.500000e+00 0.000000e+00
      vertex   -1.941421e+01 -6.914214e+00 0.000000e+00
    endloop
  endfacet
  facet normal 0.000000e+00 0.000000e+00 -1.000000e+00
    outer loop
      vertex   -1.941421e+01 -6.914214e+00 0.000000e+00
      vertex   -1.800000e+01 -7.500000e+00 0.000000e+00
      vertex   -1.917557e+01 -7.118034e+00 0.000000e+00
    endloop
  endfacet
  facet normal 0.000000e+00 0.000000e+00 -1.000000e+00
    outer loop
      vertex   -1.917557e+01 -7.118034e+00 0.000000e+00
      vertex   -1.800000e+01 -7.500000e+00 0.000000e+00
      vertex   -1.890798e+01 -7.282013e+00 0.000000e+00
    endloop
  endfacet
  facet normal 0.000000e+00 0.000000e+00 -1.000000e+00
    outer loop
      vertex   -1.890798e+01 -7.282013e+00 0.000000e+00
      vertex   -1.800000e+01 -7.500000e+00 0.000000e+00
      vertex   -1.861803e+01 -7.402113e+00 0.000000e+00
    endloop
  endfacet
  facet normal 0.000000e+00 0.000000e+00 -1.000000e+00
    outer loop
      vertex   -1.861803e+01 -7.402113e+00 0.000000e+00
      vertex   -1.800000e+01 -7.500000e+00 0.000000e+00
      vertex   -1.831287e+01 -7.475377e+00 0.000000e+00
    endloop
  endfacet
  facet normal 0.000000e+00 0.000000e+00 -1.000000e+00
    outer loop
      vertex   1.997538e+01 -5.812869e+00 0.000000e+00
      vertex   1.990211e+01 -6.118034e+00 0.000000e+00
      vertex   1.800000e+01 -7.500000e+00 0.000000e+00
    endloop
  endfacet
  facet normal 0.000000e+00 0.000000e+00 -1.000000e+00
    outer loop
      vertex   1.800000e+01 -7.500000e+00 0.000000e+00
      vertex   1.990211e+01 -6.118034e+00 0.000000e+00
      vertex   1.978201e+01 -6.407981e+00 0.000000e+00
    endloop
  endfacet
  facet normal 0.000000e+00 0.000000e+00 -1.000000e+00
    outer loop
      vertex   1.800000e+01 -7.500000e+00 0.000000e+00
      vertex   1.978201e+01 -6.407981e+00 0.000000e+00
      vertex   1.961803e+01 -6.675571e+00 0.000000e+00
    endloop
  endfacet
  facet normal 0.000000e+00 0.000000e+00 -1.000000e+00
    outer loop
      vertex   1.961803e+01 -6.675571e+00 0.000000e+00
      vertex   1.941421e+01 -6.914214e+00 0.000000e+00
      vertex   1.800000e+01 -7.500000e+00 0.000000e+00
    endloop
  endfacet
  facet normal 0.000000e+00 0.000000e+00 -1.000000e+00
    outer loop
      vertex   1.800000e+01 -7.500000e+00 0.000000e+00
      vertex   1.941421e+01 -6.914214e+00 0.000000e+00
      vertex   1.917557e+01 -7.118034e+00 0.000000e+00
    endloop
  endfacet
  facet normal 0.000000e+00 0.000000e+00 -1.000000e+00
    outer loop
      vertex   1.800000e+01 -7.500000e+00 0.000000e+00
      vertex   1.917557e+01 -7.118034e+00 0.000000e+00
      vertex   1.890798e+01 -7.282013e+00 0.000000e+00
    endloop
  endfacet
  facet normal 0.000000e+00 0.000000e+00 -1.000000e+00
    outer loop
      vertex   1.890798e+01 -7.282013e+00 0.000000e+00
      vertex   1.861803e+01 -7.402113e+00 0.000000e+00
      vertex   1.800000e+01 -7.500000e+00 0.000000e+00
    endloop
  endfacet
  facet normal 0.000000e+00 0.000000e+00 -1.000000e+00
    outer loop
      vertex   1.800000e+01 -7.500000e+00 0.000000e+00
      vertex   1.861803e+01 -7.402113e+00 0.000000e+00
      vertex   1.831287e+01 -7.475377e+00 0.000000e+00
    endloop
  endfacet
  facet normal 0.000000e+00 0.000000e+00 -1.000000e+00
    outer loop
      vertex   -1.990211e+01 6.118034e+00 0.000000e+00
      vertex   -1.978201e+01 6.407981e+00 0.000000e+00
      vertex   -1.800000e+01 7.500000e+00 0.000000e+00
    endloop
  endfacet
  facet normal 0.000000e+00 0.000000e+00 -1.000000e+00
    outer loop
      vertex   -1.800000e+01 7.500000e+00 0.000000e+00
      vertex   -1.978201e+01 6.407981e+00 0.000000e+00
      vertex   -1.961803e+01 6.675571e+00 0.000000e+00
    endloop
  endfacet
  facet normal 0.000000e+00 0.000000e+00 -1.000000e+00
    outer loop
      vertex   -1.800000e+01 7.500000e+00 0.000000e+00
      vertex   -1.961803e+01 6.675571e+00 0.000000e+00
      vertex   -1.941421e+01 6.914214e+00 0.000000e+00
    endloop
  endfacet
  facet normal 0.000000e+00 0.000000e+00 -1.000000e+00
    outer loop
      vertex   -1.941421e+01 6.914214e+00 0.000000e+00
      vertex   -1.917557e+01 7.118034e+00 0.000000e+00
      vertex   -1.800000e+01 7.500000e+00 0.000000e+00
    endloop
  endfacet
  facet normal 0.000000e+00 0.000000e+00 -1.000000e+00
    outer loop
      vertex   -1.800000e+01 7.500000e+00 0.000000e+00
      vertex   -1.917557e+01 7.118034e+00 0.000000e+00
      vertex   -1.890798e+01 7.282013e+00 0.000000e+00
    endloop
  endfacet
  facet normal 0.000000e+00 0.000000e+00 -1.000000e+00
    outer loop
      vertex   -1.800000e+01 7.500000e+00 0.000000e+00
      vertex   -1.890798e+01 7.282013e+00 0.000000e+00
      vertex   -1.861803e+01 7.402113e+00 0.000000e+00
    endloop
  endfacet
  facet normal 0.000000e+00 0.000000e+00 -1.000000e+00
    outer loop
      vertex   -1.861803e+01 7.402113e+00 0.000000e+00
      vertex   -1.831287e+01 7.475377e+00 0.000000e+00
      vertex   -1.800000e+01 7.500000e+00 0.000000e+00
    endloop
  endfacet
endsolid
