  0
SECTION
  2
HEADER
  9
$ACADVER
  1
AC1014
  9
$HANDSEED
  5
FFFF
  9
$MEASUREMENT
 70
     1
  0
ENDSEC
  0
SECTION
  2
TABLES
  0
TABLE
  2
VPORT
  5
8
330
0
100
AcDbSymbolTable
 70
     4
  0
VPORT
  5
2E
330
8
100
AcDbSymbolTableRecord
100
AcDbViewportTableRecord
  2
*ACTIVE
 70
     0
 10
0.0
 20
0.0
 11
1.0
 21
1.0
 12
210.0
 22
148.5
 13
0.0
 23
0.0
 14
10.0
 24
10.0
 15
10.0
 25
10.0
 16
0.0
 26
0.0
 36
1.0
 17
0.0
 27
0.0
 37
0.0
 40
341.0
 41
1.24
 42
50.0
 43
0.0
 44
0.0
 50
0.0
 51
0.0
 71
     0
 72
   100
 73
     1
 74
     3
 75
     0
 76
     0
 77
     0
 78
     0
  0
ENDTAB
  0
TABLE
  2
LTYPE
  5
5
330
0
100
AcDbSymbolTable
 70
     1
  0
LTYPE
  5
14
330
5
100
AcDbSymbolTableRecord
100
AcDbLinetypeTableRecord
  2
BYBLOCK
 70
     0
  3

 72
    65
 73
     0
 40
0.0
  0
LTYPE
  5
15
330
5
100
AcDbSymbolTableRecord
100
AcDbLinetypeTableRecord
  2
BYLAYER
 70
     0
  3

 72
    65
 73
     0
 40
0.0
  0
LTYPE
  5
16
330
5
100
AcDbSymbolTableRecord
100
AcDbLinetypeTableRecord
  2
CONTINUOUS
 70
     0
  3
Solid line
 72
    65
 73
     0
 40
0.0
  0
ENDTAB
  0
TABLE
  2
LAYER
  5
2
100
AcDbSymbolTable
 70
1
  0
LAYER
  5
50
100
AcDbSymbolTableRecord
100
AcDbLayerTableRecord
  2
0
 70
0
  6
CONTINUOUS
  0
ENDTAB
  0
TABLE
  2
STYLE
  5
3
330
0
100
AcDbSymbolTable
 70
     1
  0
STYLE
  5
11
330
3
100
AcDbSymbolTableRecord
100
AcDbTextStyleTableRecord
  2
STANDARD
 70
     0
 40
0.0
 41
1.0
 50
0.0
 71
     0
 42
2.5
  3
txt
  4

  0
ENDTAB
  0
TABLE
  2
VIEW
  5
6
330
0
100
AcDbSymbolTable
 70
     0
  0
ENDTAB
  0
TABLE
  2
UCS
  5
7
330
0
100
AcDbSymbolTable
 70
     0
  0
ENDTAB
  0
TABLE
  2
APPID
  5
9
330
0
100
AcDbSymbolTable
 70
     2
  0
APPID
  5
12
330
9
100
AcDbSymbolTableRecord
100
AcDbRegAppTableRecord
  2
ACAD
 70
     0
  0
ENDTAB
  0
TABLE
  2
DIMSTYLE
  5
A
330
0
100
AcDbSymbolTable
 70
     1
  0
DIMSTYLE
105
27
330
A
100
AcDbSymbolTableRecord
100
AcDbDimStyleTableRecord
  2
ISO-25
 70
     0
  3

  4

  5

  6

  7

 40
1.0
 41
2.5
 42
0.625
 43
3.75
 44
1.25
 45
0.0
 46
0.0
 47
0.0
 48
0.0
140
2.5
141
2.5
142
0.0
143
0.03937007874016
144
1.0
145
0.0
146
1.0
147
0.625
 71
     0
 72
     0
 73
     0
 74
     0
 75
     0
 76
     0
 77
     1
 78
     8
170
     0
171
     3
172
     1
173
     0
174
     0
175
     0
176
     0
177
     0
178
     0
270
     2
271
     2
272
     2
273
     2
274
     3
340
11
275
     0
280
     0
281
     0
282
     0
283
     0
284
     8
285
     0
286
     0
287
     3
288
     0
  0
ENDTAB
  0
TABLE
  2
BLOCK_RECORD
  5
1
330
0
100
AcDbSymbolTable
 70
     1
  0
BLOCK_RECORD
  5
1F
330
1
100
AcDbSymbolTableRecord
100
AcDbBlockTableRecord
  2
*MODEL_SPACE
  0
BLOCK_RECORD
  5
1B
330
1
100
AcDbSymbolTableRecord
100
AcDbBlockTableRecord
  2
*PAPER_SPACE
  0
ENDTAB
  0
ENDSEC
  0
SECTION
  2
BLOCKS
  0
BLOCK
  5
20
330
1F
100
AcDbEntity
  8
0
100
AcDbBlockBegin
  2
*MODEL_SPACE
 70
     0
 10
0.0
 20
0.0
 30
0.0
  3
*MODEL_SPACE
  1

  0
ENDBLK
  5
21
330
1F
100
AcDbEntity
  8
0
100
AcDbBlockEnd
  0
BLOCK
  5
1C
330
1B
100
AcDbEntity
 67
     1
  8
0
100
AcDbBlockBegin
  2
*PAPER_SPACE
  1

  0
ENDBLK
  5
1D
330
1B
100
AcDbEntity
 67
     1
  8
0
100
AcDbBlockEnd
  0
ENDSEC
  0
SECTION
  2
ENTITIES
  0
LWPOLYLINE
  5
100
100
AcDbEntity
  8
0
 62
7
100
AcDbPolyline
 90
126
 70
1
 10
-51.166002
 20
109.789006
 30
0.0
 10
-51.315568
 20
112.828006
 30
0.0
 10
-51.414003
 20
114.828006
 30
0.0
 10
-51.315568
 20
116.828006
 30
0.0
 10
-51.166002
 20
119.867006
 30
0.0
 10
-50.426000
 20
124.858007
 30
0.0
 10
-49.200002
 20
129.753006
 30
0.0
 10
-47.500001
 20
134.503006
 30
0.0
 10
-46.037252
 20
137.596008
 30
0.0
 10
-45.343000
 20
139.064007
 30
0.0
 10
-42.749002
 20
143.392006
 30
0.0
 10
-39.743001
 20
147.444008
 30
0.0
 10
-36.500001
 20
151.022984
 30
0.0
 10
-36.355001
 20
151.183007
 30
0.0
 10
-32.768002
 20
154.433278
 30
0.0
 10
-32.616002
 20
154.571007
 30
0.0
 10
-29.162906
 20
157.132706
 30
0.0
 10
-28.564000
 20
157.577008
 30
0.0
 10
-27.000001
 20
158.514397
 30
0.0
 10
-24.236001
 20
160.171006
 30
0.0
 10
-19.979043
 20
162.184220
 30
0.0
 10
-19.675000
 20
162.328007
 30
0.0
 10
-15.000000
 20
164.001164
 30
0.0
 10
-14.925001
 20
164.028008
 30
0.0
 10
-11.000000
 20
165.011063
 30
0.0
 10
-10.666179
 20
165.094670
 30
0.0
 10
-10.030000
 20
165.254006
 30
0.0
 10
-6.158603
 20
165.828008
 30
0.0
 10
-5.039000
 20
165.994008
 30
0.0
 10
-2.000000
 20
166.143575
 30
0.0
 10
0.000000
 20
166.242009
 30
0.0
 10
2.000000
 20
166.143575
 30
0.0
 10
5.039000
 20
165.994008
 30
0.0
 10
6.158603
 20
165.828008
 30
0.0
 10
6.219871
 20
165.818925
 30
0.0
 10
8.654033
 20
165.458016
 30
0.0
 10
10.030000
 20
165.254006
 30
0.0
 10
10.987865
 20
165.014100
 30
0.0
 10
11.000000
 20
165.011063
 30
0.0
 10
13.335955
 20
164.425999
 30
0.0
 10
14.925001
 20
164.028008
 30
0.0
 10
15.000000
 20
164.001164
 30
0.0
 10
15.639615
 20
163.772252
 30
0.0
 10
17.997756
 20
162.928284
 30
0.0
 10
19.675000
 20
162.328007
 30
0.0
 10
20.342347
 20
162.012402
 30
0.0
 10
22.754428
 20
160.871678
 30
0.0
 10
24.236001
 20
160.171006
 30
0.0
 10
25.164849
 20
159.614300
 30
0.0
 10
27.000001
 20
158.514397
 30
0.0
 10
28.564000
 20
157.577008
 30
0.0
 10
32.616002
 20
154.571007
 30
0.0
 10
32.768002
 20
154.433278
 30
0.0
 10
36.355001
 20
151.183007
 30
0.0
 10
36.500001
 20
151.022984
 30
0.0
 10
39.743001
 20
147.444008
 30
0.0
 10
42.749002
 20
143.392006
 30
0.0
 10
45.343000
 20
139.064007
 30
0.0
 10
46.037252
 20
137.596008
 30
0.0
 10
47.500001
 20
134.503006
 30
0.0
 10
49.200002
 20
129.753006
 30
0.0
 10
50.426000
 20
124.858007
 30
0.0
 10
51.166002
 20
119.867006
 30
0.0
 10
51.315568
 20
116.828006
 30
0.0
 10
51.414003
 20
114.828006
 30
0.0
 10
51.315568
 20
112.828006
 30
0.0
 10
51.166002
 20
109.789006
 30
0.0
 10
50.430448
 20
104.828006
 30
0.0
 10
50.426000
 20
104.798006
 30
0.0
 10
49.200002
 20
99.903006
 30
0.0
 10
47.500001
 20
95.153005
 30
0.0
 10
45.343000
 20
90.592005
 30
0.0
 10
43.686391
 20
87.828005
 30
0.0
 10
42.749002
 20
86.264006
 30
0.0
 10
39.743001
 20
82.212006
 30
0.0
 10
36.500001
 20
78.633026
 30
0.0
 10
36.355001
 20
78.473006
 30
0.0
 10
32.768002
 20
75.222737
 30
0.0
 10
32.616002
 20
75.085005
 30
0.0
 10
29.162906
 20
72.523306
 30
0.0
 10
28.564000
 20
72.079004
 30
0.0
 10
24.236001
 20
69.485006
 30
0.0
 10
19.979043
 20
67.471792
 30
0.0
 10
19.675000
 20
67.328005
 30
0.0
 10
15.000000
 20
65.654848
 30
0.0
 10
14.925001
 20
65.628004
 30
0.0
 10
11.000000
 20
64.644949
 30
0.0
 10
10.666179
 20
64.561342
 30
0.0
 10
10.030000
 20
64.402006
 30
0.0
 10
6.158603
 20
63.828005
 30
0.0
 10
5.039000
 20
63.662004
 30
0.0
 10
2.000000
 20
63.512438
 30
0.0
 10
0.000000
 20
63.414003
 30
0.0
 10
-2.000000
 20
63.512438
 30
0.0
 10
-5.039000
 20
63.662004
 30
0.0
 10
-6.158603
 20
63.828005
 30
0.0
 10
-6.219871
 20
63.837088
 30
0.0
 10
-8.654033
 20
64.197996
 30
0.0
 10
-10.030000
 20
64.402006
 30
0.0
 10
-10.987865
 20
64.641912
 30
0.0
 10
-11.000000
 20
64.644949
 30
0.0
 10
-13.335955
 20
65.230013
 30
0.0
 10
-14.925001
 20
65.628004
 30
0.0
 10
-15.000000
 20
65.654848
 30
0.0
 10
-15.639615
 20
65.883760
 30
0.0
 10
-17.997756
 20
66.727728
 30
0.0
 10
-19.675000
 20
67.328005
 30
0.0
 10
-20.342347
 20
67.643610
 30
0.0
 10
-22.754428
 20
68.784334
 30
0.0
 10
-24.236001
 20
69.485006
 30
0.0
 10
-25.164849
 20
70.041712
 30
0.0
 10
-27.000001
 20
71.141615
 30
0.0
 10
-27.633159
 20
71.521101
 30
0.0
 10
-28.564000
 20
72.079004
 30
0.0
 10
-30.122147
 20
73.234924
 30
0.0
 10
-32.616002
 20
75.085005
 30
0.0
 10
-32.768002
 20
75.222737
 30
0.0
 10
-36.355001
 20
78.473006
 30
0.0
 10
-36.500001
 20
78.633026
 30
0.0
 10
-39.743001
 20
82.212006
 30
0.0
 10
-42.749002
 20
86.264006
 30
0.0
 10
-45.343000
 20
90.592005
 30
0.0
 10
-47.500001
 20
95.153005
 30
0.0
 10
-49.200002
 20
99.903006
 30
0.0
 10
-50.426000
 20
104.798006
 30
0.0
 10
-50.430448
 20
104.828006
 30
0.0
  0
LWPOLYLINE
  5
101
100
AcDbEntity
  8
0
 62
7
100
AcDbPolyline
 90
24
 70
1
 10
4.354000
 20
129.182007
 30
0.0
 10
5.740000
 20
128.686006
 30
0.0
 10
7.071000
 20
128.057007
 30
0.0
 10
8.192001
 20
127.385116
 30
0.0
 10
8.334000
 20
127.300007
 30
0.0
 10
9.516000
 20
126.423006
 30
0.0
 10
10.607001
 20
125.435007
 30
0.0
 10
11.000000
 20
125.001035
 30
0.0
 10
11.000000
 20
125.145933
 30
0.0
 10
11.000000
 20
125.617933
 30
0.0
 10
11.000000
 20
126.615698
 30
0.0
 10
11.000000
 20
129.828007
 30
0.0
 10
11.000000
 20
137.596008
 30
0.0
 10
11.000000
 20
137.802231
 30
0.0
 10
9.759000
 20
138.389008
 30
0.0
 10
7.403000
 20
139.232006
 30
0.0
 10
4.975000
 20
139.840008
 30
0.0
 10
2.500000
 20
140.208008
 30
0.0
 10
2.000000
 20
140.232605
 30
0.0
 10
2.000000
 20
137.596008
 30
0.0
 10
2.000000
 20
129.828007
 30
0.0
 10
2.000000
 20
129.772156
 30
0.0
 10
2.000000
 20
129.677379
 30
0.0
 10
2.926000
 20
129.540006
 30
0.0
  0
LWPOLYLINE
  5
102
100
AcDbEntity
  8
0
 62
7
100
AcDbPolyline
 90
35
 70
1
 10
17.129000
 20
135.699007
 30
0.0
 10
17.258559
 20
135.581593
 30
0.0
 10
19.092000
 20
133.920006
 30
0.0
 10
19.209374
 20
133.790493
 30
0.0
 10
20.871001
 20
131.957006
 30
0.0
 10
20.973292
 20
131.819086
 30
0.0
 10
22.450001
 20
129.828007
 30
0.0
 10
22.538655
 20
129.680120
 30
0.0
 10
23.812001
 20
127.556007
 30
0.0
 10
24.945000
 20
125.160007
 30
0.0
 10
25.503001
 20
123.599859
 30
0.0
 10
25.837001
 20
122.666006
 30
0.0
 10
26.481002
 20
120.095006
 30
0.0
 10
26.870002
 20
117.474006
 30
0.0
 10
26.901740
 20
116.828006
 30
0.0
 10
27.000001
 20
116.828006
 30
0.0
 10
34.433461
 20
116.828006
 30
0.0
 10
34.335999
 20
119.631007
 30
0.0
 10
33.840001
 20
124.388006
 30
0.0
 10
33.016999
 20
129.053007
 30
0.0
 10
31.876000
 20
133.580007
 30
0.0
 10
30.538566
 20
137.596008
 30
0.0
 10
30.428000
 20
137.928005
 30
0.0
 10
28.688001
 20
142.052006
 30
0.0
 10
27.000001
 20
145.284901
 30
0.0
 10
26.671000
 20
145.915009
 30
0.0
 10
24.397000
 20
149.478009
 30
0.0
 10
21.888001
 20
152.707009
 30
0.0
 10
19.169001
 20
155.572007
 30
0.0
 10
16.264000
 20
158.044007
 30
0.0
 10
15.000000
 20
158.893284
 30
0.0
 10
15.000000
 20
141.828007
 30
0.0
 10
15.000000
 20
137.596008
 30
0.0
 10
15.000000
 20
137.278008
 30
0.0
 10
15.143389
 20
137.171661
 30
0.0
  0
LWPOLYLINE
  5
103
100
AcDbEntity
  8
0
 62
7
100
AcDbPolyline
 90
19
 70
1
 10
-7.838000
 20
140.665009
 30
0.0
 10
-5.267000
 20
141.309006
 30
0.0
 10
-2.646000
 20
141.698006
 30
0.0
 10
-2.000000
 20
141.729744
 30
0.0
 10
-2.000000
 20
141.828007
 30
0.0
 10
-2.000000
 20
163.691445
 30
0.0
 10
-3.382000
 20
163.595006
 30
0.0
 10
-6.731000
 20
162.889008
 30
0.0
 10
-10.016000
 20
161.720006
 30
0.0
 10
-11.000000
 20
161.219983
 30
0.0
 10
-11.000000
 20
141.828007
 30
0.0
 10
-11.000000
 20
141.287567
 30
0.0
 10
-11.000000
 20
140.458134
 30
0.0
 10
-11.000000
 20
139.872971
 30
0.0
 10
-11.000000
 20
139.534092
 30
0.0
 10
-11.000000
 20
139.457131
 30
0.0
 10
-10.332000
 20
139.773007
 30
0.0
 10
-10.170988
 20
139.830593
 30
0.0
 10
-8.771853
 20
140.331005
 30
0.0
  0
LWPOLYLINE
  5
104
100
AcDbEntity
  8
0
 62
7
100
AcDbPolyline
 90
40
 70
1
 10
-23.812001
 20
127.556007
 30
0.0
 10
-23.726309
 20
127.698950
 30
0.0
 10
-22.450001
 20
129.828007
 30
0.0
 10
-22.343655
 20
129.971395
 30
0.0
 10
-20.871001
 20
131.957006
 30
0.0
 10
-20.753586
 20
132.086565
 30
0.0
 10
-19.092000
 20
133.920006
 30
0.0
 10
-18.962487
 20
134.037380
 30
0.0
 10
-17.129000
 20
135.699007
 30
0.0
 10
-15.000000
 20
137.278008
 30
0.0
 10
-15.000000
 20
137.596008
 30
0.0
 10
-15.000000
 20
138.103458
 30
0.0
 10
-15.000000
 20
138.871025
 30
0.0
 10
-15.000000
 20
139.864468
 30
0.0
 10
-15.000000
 20
141.091046
 30
0.0
 10
-15.000000
 20
141.828007
 30
0.0
 10
-15.000000
 20
158.893284
 30
0.0
 10
-16.264000
 20
158.044007
 30
0.0
 10
-19.169001
 20
155.572007
 30
0.0
 10
-21.888001
 20
152.707009
 30
0.0
 10
-24.397000
 20
149.478009
 30
0.0
 10
-26.671000
 20
145.915009
 30
0.0
 10
-27.000001
 20
145.284901
 30
0.0
 10
-28.688001
 20
142.052006
 30
0.0
 10
-30.428000
 20
137.928005
 30
0.0
 10
-30.538566
 20
137.596008
 30
0.0
 10
-31.876000
 20
133.580007
 30
0.0
 10
-33.016999
 20
129.053007
 30
0.0
 10
-33.840001
 20
124.388006
 30
0.0
 10
-34.335999
 20
119.631007
 30
0.0
 10
-34.433461
 20
116.828006
 30
0.0
 10
-27.000001
 20
116.828006
 30
0.0
 10
-26.965878
 20
116.828006
 30
0.0
 10
-26.901740
 20
116.828006
 30
0.0
 10
-26.870002
 20
117.474006
 30
0.0
 10
-26.481002
 20
120.095006
 30
0.0
 10
-25.837001
 20
122.666006
 30
0.0
 10
-25.503001
 20
123.599859
 30
0.0
 10
-24.945000
 20
125.160007
 30
0.0
 10
-24.868256
 20
125.322302
 30
0.0
  0
LWPOLYLINE
  5
105
100
AcDbEntity
  8
0
 62
7
100
AcDbPolyline
 90
36
 70
1
 10
-25.837001
 20
106.990006
 30
0.0
 10
-26.481002
 20
109.561006
 30
0.0
 10
-26.870002
 20
112.182006
 30
0.0
 10
-26.901740
 20
112.828006
 30
0.0
 10
-27.000001
 20
112.828006
 30
0.0
 10
-34.433461
 20
112.828006
 30
0.0
 10
-34.335999
 20
110.025006
 30
0.0
 10
-33.840001
 20
105.268006
 30
0.0
 10
-33.762376
 20
104.828006
 30
0.0
 10
-33.016999
 20
100.603006
 30
0.0
 10
-31.876000
 20
96.076006
 30
0.0
 10
-30.428000
 20
91.728005
 30
0.0
 10
-28.688001
 20
87.604004
 30
0.0
 10
-27.000001
 20
84.371113
 30
0.0
 10
-26.671000
 20
83.741005
 30
0.0
 10
-24.397000
 20
80.178006
 30
0.0
 10
-21.888001
 20
76.949005
 30
0.0
 10
-19.169001
 20
74.084006
 30
0.0
 10
-16.264000
 20
71.612005
 30
0.0
 10
-15.000000
 20
70.762728
 30
0.0
 10
-15.000000
 20
87.828005
 30
0.0
 10
-15.000000
 20
89.783008
 30
0.0
 10
-15.000000
 20
91.220774
 30
0.0
 10
-15.000000
 20
92.027566
 30
0.0
 10
-15.000000
 20
92.378006
 30
0.0
 10
-15.143389
 20
92.484352
 30
0.0
 10
-17.129000
 20
93.957005
 30
0.0
 10
-17.258559
 20
94.074421
 30
0.0
 10
-19.092000
 20
95.736006
 30
0.0
 10
-19.209374
 20
95.865519
 30
0.0
 10
-20.871001
 20
97.699005
 30
0.0
 10
-22.450001
 20
99.828006
 30
0.0
 10
-23.812001
 20
102.100006
 30
0.0
 10
-24.945000
 20
104.496006
 30
0.0
 10
-25.063742
 20
104.828006
 30
0.0
 10
-25.503001
 20
106.056154
 30
0.0
  0
LWPOLYLINE
  5
106
100
AcDbEntity
  8
0
 62
7
100
AcDbPolyline
 90
42
 70
1
 10
23.812001
 20
102.100006
 30
0.0
 10
23.726309
 20
101.957063
 30
0.0
 10
22.450001
 20
99.828006
 30
0.0
 10
22.343655
 20
99.684616
 30
0.0
 10
20.871001
 20
97.699005
 30
0.0
 10
20.753586
 20
97.569447
 30
0.0
 10
19.092000
 20
95.736006
 30
0.0
 10
18.962487
 20
95.618632
 30
0.0
 10
17.129000
 20
93.957005
 30
0.0
 10
16.991080
 20
93.854714
 30
0.0
 10
15.000000
 20
92.378006
 30
0.0
 10
15.000000
 20
92.090370
 30
0.0
 10
15.000000
 20
91.552555
 30
0.0
 10
15.000000
 20
90.784987
 30
0.0
 10
15.000000
 20
89.791545
 30
0.0
 10
15.000000
 20
88.564967
 30
0.0
 10
15.000000
 20
87.828005
 30
0.0
 10
15.000000
 20
70.762728
 30
0.0
 10
16.264000
 20
71.612005
 30
0.0
 10
19.169001
 20
74.084006
 30
0.0
 10
21.888001
 20
76.949005
 30
0.0
 10
24.397000
 20
80.178006
 30
0.0
 10
26.671000
 20
83.741005
 30
0.0
 10
28.688001
 20
87.604004
 30
0.0
 10
28.782512
 20
87.828005
 30
0.0
 10
30.428000
 20
91.728005
 30
0.0
 10
31.876000
 20
96.076006
 30
0.0
 10
33.016999
 20
100.603006
 30
0.0
 10
33.762376
 20
104.828006
 30
0.0
 10
33.840001
 20
105.268006
 30
0.0
 10
34.335999
 20
110.025006
 30
0.0
 10
34.433461
 20
112.828006
 30
0.0
 10
27.000001
 20
112.828006
 30
0.0
 10
26.965878
 20
112.828006
 30
0.0
 10
26.901740
 20
112.828006
 30
0.0
 10
26.870002
 20
112.182006
 30
0.0
 10
26.481002
 20
109.561006
 30
0.0
 10
25.837001
 20
106.990006
 30
0.0
 10
25.503001
 20
106.056154
 30
0.0
 10
25.063742
 20
104.828006
 30
0.0
 10
24.945000
 20
104.496006
 30
0.0
 10
24.868256
 20
104.333711
 30
0.0
  0
LWPOLYLINE
  5
107
100
AcDbEntity
  8
0
 62
7
100
AcDbPolyline
 90
20
 70
1
 10
7.838000
 20
88.991006
 30
0.0
 10
5.267000
 20
88.347004
 30
0.0
 10
2.646000
 20
87.958005
 30
0.0
 10
2.000000
 20
87.926266
 30
0.0
 10
2.000000
 20
87.828005
 30
0.0
 10
2.000000
 20
65.964567
 30
0.0
 10
3.382000
 20
66.061006
 30
0.0
 10
6.731000
 20
66.767004
 30
0.0
 10
10.016000
 20
67.936007
 30
0.0
 10
11.000000
 20
68.436029
 30
0.0
 10
11.000000
 20
87.828005
 30
0.0
 10
11.000000
 20
88.368443
 30
0.0
 10
11.000000
 20
89.197878
 30
0.0
 10
11.000000
 20
89.783043
 30
0.0
 10
11.000000
 20
90.121921
 30
0.0
 10
11.000000
 20
90.198884
 30
0.0
 10
10.332000
 20
89.883006
 30
0.0
 10
10.170988
 20
89.825418
 30
0.0
 10
10.003001
 20
89.765336
 30
0.0
 10
8.771853
 20
89.325005
 30
0.0
  0
LWPOLYLINE
  5
108
100
AcDbEntity
  8
0
 62
7
100
AcDbPolyline
 90
20
 70
1
 10
-10.332000
 20
89.883006
 30
0.0
 10
-10.494295
 20
89.959750
 30
0.0
 10
-11.000000
 20
90.198884
 30
0.0
 10
-11.000000
 20
89.980118
 30
0.0
 10
-11.000000
 20
89.411355
 30
0.0
 10
-11.000000
 20
88.402501
 30
0.0
 10
-11.000000
 20
87.828005
 30
0.0
 10
-11.000000
 20
68.436029
 30
0.0
 10
-10.016000
 20
67.936007
 30
0.0
 10
-6.731000
 20
66.767004
 30
0.0
 10
-3.382000
 20
66.061006
 30
0.0
 10
-2.000000
 20
65.964567
 30
0.0
 10
-2.000000
 20
87.828005
 30
0.0
 10
-2.000000
 20
87.862128
 30
0.0
 10
-2.000000
 20
87.926266
 30
0.0
 10
-2.646000
 20
87.958005
 30
0.0
 10
-5.267000
 20
88.347004
 30
0.0
 10
-7.838000
 20
88.991006
 30
0.0
 10
-8.771853
 20
89.325005
 30
0.0
 10
-10.003001
 20
89.765336
 30
0.0
  0
LWPOLYLINE
  5
109
100
AcDbEntity
  8
0
 62
7
100
AcDbPolyline
 90
16
 70
1
 10
3.382000
 20
163.595006
 30
0.0
 10
2.000000
 20
163.691445
 30
0.0
 10
2.000000
 20
141.828007
 30
0.0
 10
2.000000
 20
141.793884
 30
0.0
 10
2.000000
 20
141.729744
 30
0.0
 10
2.646000
 20
141.698006
 30
0.0
 10
5.267000
 20
141.309006
 30
0.0
 10
7.838000
 20
140.665009
 30
0.0
 10
8.771853
 20
140.331005
 30
0.0
 10
10.332000
 20
139.773007
 30
0.0
 10
11.000000
 20
139.457131
 30
0.0
 10
11.000000
 20
139.675896
 30
0.0
 10
11.000000
 20
141.828007
 30
0.0
 10
11.000000
 20
161.219983
 30
0.0
 10
10.016000
 20
161.720006
 30
0.0
 10
6.731000
 20
162.889008
 30
0.0
  0
LWPOLYLINE
  5
10a
100
AcDbEntity
  8
0
 62
7
100
AcDbPolyline
 90
68
 70
1
 10
9.354000
 20
121.078006
 30
0.0
 10
9.254595
 20
121.212007
 30
0.0
 10
8.696000
 20
121.965005
 30
0.0
 10
8.192001
 20
122.521379
 30
0.0
 10
7.955000
 20
122.783006
 30
0.0
 10
7.137000
 20
123.524006
 30
0.0
 10
6.250000
 20
124.182006
 30
0.0
 10
5.303000
 20
124.750007
 30
0.0
 10
4.305000
 20
125.222006
 30
0.0
 10
3.266000
 20
125.594007
 30
0.0
 10
2.195000
 20
125.862007
 30
0.0
 10
1.103000
 20
126.024006
 30
0.0
 10
0.000000
 20
126.078006
 30
0.0
 10
-1.103000
 20
126.024006
 30
0.0
 10
-2.195000
 20
125.862007
 30
0.0
 10
-3.266000
 20
125.594007
 30
0.0
 10
-4.305000
 20
125.222006
 30
0.0
 10
-5.303000
 20
124.750007
 30
0.0
 10
-6.250000
 20
124.182006
 30
0.0
 10
-7.137000
 20
123.524006
 30
0.0
 10
-7.955000
 20
122.783006
 30
0.0
 10
-8.192001
 20
122.521379
 30
0.0
 10
-8.696000
 20
121.965005
 30
0.0
 10
-9.254595
 20
121.212007
 30
0.0
 10
-9.354000
 20
121.078006
 30
0.0
 10
-9.922000
 20
120.131007
 30
0.0
 10
-10.394000
 20
119.133007
 30
0.0
 10
-10.766000
 20
118.094006
 30
0.0
 10
-11.000000
 20
117.158880
 30
0.0
 10
-11.000000
 20
113.020006
 30
0.0
 10
-11.000000
 20
112.497133
 30
0.0
 10
-10.766000
 20
111.562006
 30
0.0
 10
-10.394000
 20
110.523006
 30
0.0
 10
-9.922000
 20
109.525006
 30
0.0
 10
-9.354000
 20
108.578006
 30
0.0
 10
-8.696000
 20
107.691006
 30
0.0
 10
-8.192001
 20
107.134633
 30
0.0
 10
-7.955000
 20
106.873006
 30
0.0
 10
-7.137000
 20
106.132006
 30
0.0
 10
-6.250000
 20
105.474006
 30
0.0
 10
-5.303000
 20
104.906006
 30
0.0
 10
-5.138076
 20
104.828006
 30
0.0
 10
-4.305000
 20
104.434006
 30
0.0
 10
-3.266000
 20
104.062006
 30
0.0
 10
-2.195000
 20
103.794006
 30
0.0
 10
-1.103000
 20
103.632006
 30
0.0
 10
0.000000
 20
103.578006
 30
0.0
 10
1.103000
 20
103.632006
 30
0.0
 10
2.195000
 20
103.794006
 30
0.0
 10
3.266000
 20
104.062006
 30
0.0
 10
4.305000
 20
104.434006
 30
0.0
 10
5.138076
 20
104.828006
 30
0.0
 10
5.303000
 20
104.906006
 30
0.0
 10
6.250000
 20
105.474006
 30
0.0
 10
7.137000
 20
106.132006
 30
0.0
 10
7.955000
 20
106.873006
 30
0.0
 10
8.192001
 20
107.134633
 30
0.0
 10
8.696000
 20
107.691006
 30
0.0
 10
9.354000
 20
108.578006
 30
0.0
 10
9.922000
 20
109.525006
 30
0.0
 10
10.394000
 20
110.523006
 30
0.0
 10
10.766000
 20
111.562006
 30
0.0
 10
11.000000
 20
112.497133
 30
0.0
 10
11.000000
 20
113.020006
 30
0.0
 10
11.000000
 20
117.158880
 30
0.0
 10
10.766000
 20
118.094006
 30
0.0
 10
10.394000
 20
119.133007
 30
0.0
 10
9.922000
 20
120.131007
 30
0.0
  0
LWPOLYLINE
  5
10b
100
AcDbEntity
  8
0
 62
7
100
AcDbPolyline
 90
26
 70
1
 10
15.000000
 20
109.071981
 30
0.0
 10
15.000000
 20
104.828006
 30
0.0
 10
15.000000
 20
104.312367
 30
0.0
 10
15.000000
 20
104.283830
 30
0.0
 10
15.000000
 20
103.142961
 30
0.0
 10
15.000000
 20
101.907204
 30
0.0
 10
15.000000
 20
100.562700
 30
0.0
 10
15.000000
 20
99.828006
 30
0.0
 10
15.000000
 20
94.239869
 30
0.0
 10
16.179001
 20
95.114006
 30
0.0
 10
18.033001
 20
96.795006
 30
0.0
 10
19.714001
 20
98.649006
 30
0.0
 10
20.588137
 20
99.828006
 30
0.0
 10
21.205001
 20
100.660006
 30
0.0
 10
22.491000
 20
102.806006
 30
0.0
 10
23.447051
 20
104.828006
 30
0.0
 10
23.561001
 20
105.069006
 30
0.0
 10
24.404000
 20
107.425006
 30
0.0
 10
25.012000
 20
109.853006
 30
0.0
 10
25.380000
 20
112.328006
 30
0.0
 10
25.404601
 20
112.828006
 30
0.0
 10
15.000000
 20
112.828006
 30
0.0
 10
15.000000
 20
112.279159
 30
0.0
 10
15.000000
 20
111.504544
 30
0.0
 10
15.000000
 20
110.711792
 30
0.0
 10
15.000000
 20
109.901185
 30
0.0
  0
LWPOLYLINE
  5
10c
100
AcDbEntity
  8
0
 62
7
100
AcDbPolyline
 90
15
 70
1
 10
25.012000
 20
119.803007
 30
0.0
 10
24.659171
 20
121.212007
 30
0.0
 10
24.404000
 20
122.231006
 30
0.0
 10
23.561001
 20
124.587007
 30
0.0
 10
22.491000
 20
126.850006
 30
0.0
 10
21.205001
 20
128.996006
 30
0.0
 10
19.714001
 20
131.007007
 30
0.0
 10
18.033001
 20
132.861008
 30
0.0
 10
16.179001
 20
134.542007
 30
0.0
 10
15.000000
 20
135.416143
 30
0.0
 10
15.000000
 20
129.828007
 30
0.0
 10
15.000000
 20
121.212007
 30
0.0
 10
15.000000
 20
116.828006
 30
0.0
 10
25.404601
 20
116.828006
 30
0.0
 10
25.380000
 20
117.328006
 30
0.0
  0
LWPOLYLINE
  5
10d
100
AcDbEntity
  8
0
 62
7
100
AcDbPolyline
 90
24
 70
1
 10
-11.000000
 20
137.802231
 30
0.0
 10
-11.000000
 20
137.596008
 30
0.0
 10
-11.000000
 20
129.828007
 30
0.0
 10
-11.000000
 20
125.702095
 30
0.0
 10
-11.000000
 20
125.321933
 30
0.0
 10
-11.000000
 20
125.079109
 30
0.0
 10
-11.000000
 20
125.001035
 30
0.0
 10
-10.607001
 20
125.435007
 30
0.0
 10
-9.516000
 20
126.423006
 30
0.0
 10
-8.334000
 20
127.300007
 30
0.0
 10
-8.192001
 20
127.385116
 30
0.0
 10
-7.071000
 20
128.057007
 30
0.0
 10
-5.740000
 20
128.686006
 30
0.0
 10
-4.354000
 20
129.182007
 30
0.0
 10
-2.926000
 20
129.540006
 30
0.0
 10
-2.000000
 20
129.677379
 30
0.0
 10
-2.000000
 20
129.730047
 30
0.0
 10
-2.000000
 20
129.828007
 30
0.0
 10
-2.000000
 20
137.596008
 30
0.0
 10
-2.000000
 20
140.232605
 30
0.0
 10
-2.500000
 20
140.208008
 30
0.0
 10
-4.975000
 20
139.840008
 30
0.0
 10
-7.403000
 20
139.232006
 30
0.0
 10
-9.759000
 20
138.389008
 30
0.0
  0
LWPOLYLINE
  5
10e
100
AcDbEntity
  8
0
 62
7
100
AcDbPolyline
 90
20
 70
1
 10
-15.000000
 20
121.212007
 30
0.0
 10
-15.000000
 20
121.456745
 30
0.0
 10
-15.000000
 20
122.354082
 30
0.0
 10
-15.000000
 20
123.304628
 30
0.0
 10
-15.000000
 20
129.828007
 30
0.0
 10
-15.000000
 20
135.416143
 30
0.0
 10
-16.179001
 20
134.542007
 30
0.0
 10
-18.033001
 20
132.861008
 30
0.0
 10
-19.714001
 20
131.007007
 30
0.0
 10
-21.205001
 20
128.996006
 30
0.0
 10
-22.491000
 20
126.850006
 30
0.0
 10
-23.561001
 20
124.587007
 30
0.0
 10
-24.404000
 20
122.231006
 30
0.0
 10
-24.659171
 20
121.212007
 30
0.0
 10
-25.012000
 20
119.803007
 30
0.0
 10
-25.380000
 20
117.328006
 30
0.0
 10
-25.404601
 20
116.828006
 30
0.0
 10
-15.000000
 20
116.828006
 30
0.0
 10
-15.000000
 20
117.376853
 30
0.0
 10
-15.000000
 20
118.151469
 30
0.0
  0
LWPOLYLINE
  5
10f
100
AcDbEntity
  8
0
 62
7
100
AcDbPolyline
 90
15
 70
1
 10
-23.561001
 20
105.069006
 30
0.0
 10
-23.447051
 20
104.828006
 30
0.0
 10
-22.491000
 20
102.806006
 30
0.0
 10
-21.205001
 20
100.660006
 30
0.0
 10
-19.714001
 20
98.649006
 30
0.0
 10
-18.033001
 20
96.795006
 30
0.0
 10
-16.179001
 20
95.114006
 30
0.0
 10
-15.000000
 20
94.239869
 30
0.0
 10
-15.000000
 20
99.828006
 30
0.0
 10
-15.000000
 20
104.828006
 30
0.0
 10
-15.000000
 20
112.828006
 30
0.0
 10
-25.404601
 20
112.828006
 30
0.0
 10
-25.380000
 20
112.328006
 30
0.0
 10
-25.012000
 20
109.853006
 30
0.0
 10
-24.404000
 20
107.425006
 30
0.0
  0
LWPOLYLINE
  5
110
100
AcDbEntity
  8
0
 62
7
100
AcDbPolyline
 90
28
 70
1
 10
10.607001
 20
104.221006
 30
0.0
 10
10.462588
 20
104.090227
 30
0.0
 10
9.516000
 20
103.233006
 30
0.0
 10
8.334000
 20
102.356006
 30
0.0
 10
7.071000
 20
101.599006
 30
0.0
 10
5.740000
 20
100.970006
 30
0.0
 10
4.354000
 20
100.474006
 30
0.0
 10
2.926000
 20
100.116006
 30
0.0
 10
2.000000
 20
99.978632
 30
0.0
 10
2.000000
 20
99.925965
 30
0.0
 10
2.000000
 20
99.828006
 30
0.0
 10
2.000000
 20
89.423405
 30
0.0
 10
2.500000
 20
89.448005
 30
0.0
 10
4.975000
 20
89.816005
 30
0.0
 10
7.403000
 20
90.424005
 30
0.0
 10
9.759000
 20
91.267006
 30
0.0
 10
10.003001
 20
91.382374
 30
0.0
 10
11.000000
 20
91.853779
 30
0.0
 10
11.000000
 20
99.828006
 30
0.0
 10
11.000000
 20
100.366781
 30
0.0
 10
11.000000
 20
101.313797
 30
0.0
 10
11.000000
 20
102.140160
 30
0.0
 10
11.000000
 20
102.852372
 30
0.0
 10
11.000000
 20
103.455761
 30
0.0
 10
11.000000
 20
103.953917
 30
0.0
 10
11.000000
 20
104.116537
 30
0.0
 10
11.000000
 20
104.576903
 30
0.0
 10
11.000000
 20
104.654977
 30
0.0
  0
LWPOLYLINE
  5
111
100
AcDbEntity
  8
0
 62
7
100
AcDbPolyline
 90
20
 70
1
 10
-10.607001
 20
104.221006
 30
0.0
 10
-11.000000
 20
104.654977
 30
0.0
 10
-11.000000
 20
99.828006
 30
0.0
 10
-11.000000
 20
91.853779
 30
0.0
 10
-10.003001
 20
91.382374
 30
0.0
 10
-9.759000
 20
91.267006
 30
0.0
 10
-7.403000
 20
90.424005
 30
0.0
 10
-4.975000
 20
89.816005
 30
0.0
 10
-2.500000
 20
89.448005
 30
0.0
 10
-2.000000
 20
89.423405
 30
0.0
 10
-2.000000
 20
99.828006
 30
0.0
 10
-2.000000
 20
99.883857
 30
0.0
 10
-2.000000
 20
99.978632
 30
0.0
 10
-2.926000
 20
100.116006
 30
0.0
 10
-4.354000
 20
100.474006
 30
0.0
 10
-5.740000
 20
100.970006
 30
0.0
 10
-7.071000
 20
101.599006
 30
0.0
 10
-8.334000
 20
102.356006
 30
0.0
 10
-9.516000
 20
103.233006
 30
0.0
 10
-10.607001
 20
104.221006
 30
0.0
  0
ENDSEC
  0
SECTION
  2
OBJECTS
  0
DICTIONARY
  5
C
330
0
100
AcDbDictionary
  3
ACAD_GROUP
350
D
  3
ACAD_MLINESTYLE
350
17
  0
DICTIONARY
  5
D
330
C
100
AcDbDictionary
  0
DICTIONARY
  5
1A
330
C
100
AcDbDictionary
  0
DICTIONARY
  5
17
330
C
100
AcDbDictionary
  3
STANDARD
350
18
  0
DICTIONARY
  5
19
330
C
100
AcDbDictionary
  0
ENDSEC
  0
EOF
