  0
SECTION
  2
HEADER
  9
$ACADVER
  1
AC1014
  9
$HANDSEED
  5
FFFF
  9
$MEASUREMENT
 70
     1
  0
ENDSEC
  0
SECTION
  2
TABLES
  0
TABLE
  2
VPORT
  5
8
330
0
100
AcDbSymbolTable
 70
     4
  0
VPORT
  5
2E
330
8
100
AcDbSymbolTableRecord
100
AcDbViewportTableRecord
  2
*ACTIVE
 70
     0
 10
0.0
 20
0.0
 11
1.0
 21
1.0
 12
210.0
 22
148.5
 13
0.0
 23
0.0
 14
10.0
 24
10.0
 15
10.0
 25
10.0
 16
0.0
 26
0.0
 36
1.0
 17
0.0
 27
0.0
 37
0.0
 40
341.0
 41
1.24
 42
50.0
 43
0.0
 44
0.0
 50
0.0
 51
0.0
 71
     0
 72
   100
 73
     1
 74
     3
 75
     0
 76
     0
 77
     0
 78
     0
  0
ENDTAB
  0
TABLE
  2
LTYPE
  5
5
330
0
100
AcDbSymbolTable
 70
     1
  0
LTYPE
  5
14
330
5
100
AcDbSymbolTableRecord
100
AcDbLinetypeTableRecord
  2
BYBLOCK
 70
     0
  3

 72
    65
 73
     0
 40
0.0
  0
LTYPE
  5
15
330
5
100
AcDbSymbolTableRecord
100
AcDbLinetypeTableRecord
  2
BYLAYER
 70
     0
  3

 72
    65
 73
     0
 40
0.0
  0
LTYPE
  5
16
330
5
100
AcDbSymbolTableRecord
100
AcDbLinetypeTableRecord
  2
CONTINUOUS
 70
     0
  3
Solid line
 72
    65
 73
     0
 40
0.0
  0
ENDTAB
  0
TABLE
  2
LAYER
  5
2
100
AcDbSymbolTable
 70
1
  0
LAYER
  5
50
100
AcDbSymbolTableRecord
100
AcDbLayerTableRecord
  2
0
 70
0
  6
CONTINUOUS
  0
ENDTAB
  0
TABLE
  2
STYLE
  5
3
330
0
100
AcDbSymbolTable
 70
     1
  0
STYLE
  5
11
330
3
100
AcDbSymbolTableRecord
100
AcDbTextStyleTableRecord
  2
STANDARD
 70
     0
 40
0.0
 41
1.0
 50
0.0
 71
     0
 42
2.5
  3
txt
  4

  0
ENDTAB
  0
TABLE
  2
VIEW
  5
6
330
0
100
AcDbSymbolTable
 70
     0
  0
ENDTAB
  0
TABLE
  2
UCS
  5
7
330
0
100
AcDbSymbolTable
 70
     0
  0
ENDTAB
  0
TABLE
  2
APPID
  5
9
330
0
100
AcDbSymbolTable
 70
     2
  0
APPID
  5
12
330
9
100
AcDbSymbolTableRecord
100
AcDbRegAppTableRecord
  2
ACAD
 70
     0
  0
ENDTAB
  0
TABLE
  2
DIMSTYLE
  5
A
330
0
100
AcDbSymbolTable
 70
     1
  0
DIMSTYLE
105
27
330
A
100
AcDbSymbolTableRecord
100
AcDbDimStyleTableRecord
  2
ISO-25
 70
     0
  3

  4

  5

  6

  7

 40
1.0
 41
2.5
 42
0.625
 43
3.75
 44
1.25
 45
0.0
 46
0.0
 47
0.0
 48
0.0
140
2.5
141
2.5
142
0.0
143
0.03937007874016
144
1.0
145
0.0
146
1.0
147
0.625
 71
     0
 72
     0
 73
     0
 74
     0
 75
     0
 76
     0
 77
     1
 78
     8
170
     0
171
     3
172
     1
173
     0
174
     0
175
     0
176
     0
177
     0
178
     0
270
     2
271
     2
272
     2
273
     2
274
     3
340
11
275
     0
280
     0
281
     0
282
     0
283
     0
284
     8
285
     0
286
     0
287
     3
288
     0
  0
ENDTAB
  0
TABLE
  2
BLOCK_RECORD
  5
1
330
0
100
AcDbSymbolTable
 70
     1
  0
BLOCK_RECORD
  5
1F
330
1
100
AcDbSymbolTableRecord
100
AcDbBlockTableRecord
  2
*MODEL_SPACE
  0
BLOCK_RECORD
  5
1B
330
1
100
AcDbSymbolTableRecord
100
AcDbBlockTableRecord
  2
*PAPER_SPACE
  0
ENDTAB
  0
ENDSEC
  0
SECTION
  2
BLOCKS
  0
BLOCK
  5
20
330
1F
100
AcDbEntity
  8
0
100
AcDbBlockBegin
  2
*MODEL_SPACE
 70
     0
 10
0.0
 20
0.0
 30
0.0
  3
*MODEL_SPACE
  1

  0
ENDBLK
  5
21
330
1F
100
AcDbEntity
  8
0
100
AcDbBlockEnd
  0
BLOCK
  5
1C
330
1B
100
AcDbEntity
 67
     1
  8
0
100
AcDbBlockBegin
  2
*PAPER_SPACE
  1

  0
ENDBLK
  5
1D
330
1B
100
AcDbEntity
 67
     1
  8
0
100
AcDbBlockEnd
  0
ENDSEC
  0
SECTION
  2
ENTITIES
  0
LWPOLYLINE
  5
100
100
AcDbEntity
  8
0
 62
7
100
AcDbPolyline
 90
68
 70
1
 10
51.251999
 20
110.048000
 30
0.0
 10
51.500000
 20
105.000000
 30
0.0
 10
51.251999
 20
99.952000
 30
0.0
 10
50.509998
 20
94.953000
 30
0.0
 10
50.270561
 20
93.997000
 30
0.0
 10
49.282001
 20
90.050000
 30
0.0
 10
47.580002
 20
85.292000
 30
0.0
 10
45.418999
 20
80.723000
 30
0.0
 10
42.820999
 20
76.388000
 30
0.0
 10
39.810001
 20
72.328999
 30
0.0
 10
36.416000
 20
68.584000
 30
0.0
 10
32.671001
 20
65.189999
 30
0.0
 10
28.612000
 20
62.179001
 30
0.0
 10
24.277000
 20
59.581001
 30
0.0
 10
19.708000
 20
57.419998
 30
0.0
 10
14.950000
 20
55.717999
 30
0.0
 10
10.047000
 20
54.490002
 30
0.0
 10
5.048000
 20
53.748001
 30
0.0
 10
0.000000
 20
53.500000
 30
0.0
 10
-5.048000
 20
53.748001
 30
0.0
 10
-10.047000
 20
54.490002
 30
0.0
 10
-11.003000
 20
54.729439
 30
0.0
 10
-14.950000
 20
55.717999
 30
0.0
 10
-19.708000
 20
57.419998
 30
0.0
 10
-24.277000
 20
59.581001
 30
0.0
 10
-28.612000
 20
62.179001
 30
0.0
 10
-32.671001
 20
65.189999
 30
0.0
 10
-36.416000
 20
68.584000
 30
0.0
 10
-39.810001
 20
72.328999
 30
0.0
 10
-42.820999
 20
76.388000
 30
0.0
 10
-45.418999
 20
80.723000
 30
0.0
 10
-47.580002
 20
85.292000
 30
0.0
 10
-49.282001
 20
90.050000
 30
0.0
 10
-50.509998
 20
94.953000
 30
0.0
 10
-51.251999
 20
99.952000
 30
0.0
 10
-51.500000
 20
105.000000
 30
0.0
 10
-51.251999
 20
110.048000
 30
0.0
 10
-50.509998
 20
115.047000
 30
0.0
 10
-49.282001
 20
119.950000
 30
0.0
 10
-47.580002
 20
124.708000
 30
0.0
 10
-45.418999
 20
129.277000
 30
0.0
 10
-42.820999
 20
133.612000
 30
0.0
 10
-39.810001
 20
137.671001
 30
0.0
 10
-36.416000
 20
141.416000
 30
0.0
 10
-32.671001
 20
144.810001
 30
0.0
 10
-28.612000
 20
147.820999
 30
0.0
 10
-24.277000
 20
150.418999
 30
0.0
 10
-19.708000
 20
152.580002
 30
0.0
 10
-14.950000
 20
154.282001
 30
0.0
 10
-11.003000
 20
155.270561
 30
0.0
 10
-10.047000
 20
155.509998
 30
0.0
 10
-5.048000
 20
156.251999
 30
0.0
 10
0.000000
 20
156.500000
 30
0.0
 10
5.048000
 20
156.251999
 30
0.0
 10
10.047000
 20
155.509998
 30
0.0
 10
11.003000
 20
155.270561
 30
0.0
 10
14.950000
 20
154.282001
 30
0.0
 10
19.708000
 20
152.580002
 30
0.0
 10
24.277000
 20
150.418999
 30
0.0
 10
28.612000
 20
147.820999
 30
0.0
 10
32.671001
 20
144.810001
 30
0.0
 10
36.416000
 20
141.416000
 30
0.0
 10
39.810001
 20
137.671001
 30
0.0
 10
42.820999
 20
133.612000
 30
0.0
 10
45.418999
 20
129.277000
 30
0.0
 10
47.580002
 20
124.708000
 30
0.0
 10
49.282001
 20
119.950000
 30
0.0
 10
50.509998
 20
115.047000
 30
0.0
  0
LWPOLYLINE
  5
101
100
AcDbEntity
  8
0
 62
7
100
AcDbPolyline
 90
65
 70
1
 10
1.078000
 20
115.950000
 30
0.0
 10
0.000000
 20
116.003000
 30
0.0
 10
-1.078000
 20
115.950000
 30
0.0
 10
-2.146000
 20
115.791000
 30
0.0
 10
-3.194000
 20
115.529000
 30
0.0
 10
-4.210000
 20
115.165000
 30
0.0
 10
-5.187000
 20
114.703000
 30
0.0
 10
-6.113000
 20
114.148000
 30
0.0
 10
-6.980000
 20
113.505000
 30
0.0
 10
-7.780000
 20
112.780000
 30
0.0
 10
-8.505000
 20
111.980000
 30
0.0
 10
-9.148000
 20
111.113000
 30
0.0
 10
-9.703000
 20
110.187000
 30
0.0
 10
-10.165000
 20
109.210000
 30
0.0
 10
-10.529000
 20
108.194000
 30
0.0
 10
-10.791000
 20
107.146000
 30
0.0
 10
-10.950000
 20
106.078000
 30
0.0
 10
-11.003000
 20
105.000000
 30
0.0
 10
-10.950000
 20
103.922000
 30
0.0
 10
-10.791000
 20
102.854000
 30
0.0
 10
-10.529000
 20
101.806000
 30
0.0
 10
-10.165000
 20
100.790000
 30
0.0
 10
-9.703000
 20
99.813000
 30
0.0
 10
-9.148000
 20
98.887000
 30
0.0
 10
-8.505000
 20
98.020000
 30
0.0
 10
-7.780000
 20
97.220000
 30
0.0
 10
-6.980000
 20
96.495000
 30
0.0
 10
-6.113000
 20
95.852000
 30
0.0
 10
-5.187000
 20
95.297000
 30
0.0
 10
-4.210000
 20
94.835000
 30
0.0
 10
-3.194000
 20
94.471000
 30
0.0
 10
-2.146000
 20
94.209000
 30
0.0
 10
-1.078000
 20
94.050000
 30
0.0
 10
0.000000
 20
93.997000
 30
0.0
 10
1.078000
 20
94.050000
 30
0.0
 10
2.146000
 20
94.209000
 30
0.0
 10
3.194000
 20
94.471000
 30
0.0
 10
4.210000
 20
94.835000
 30
0.0
 10
5.187000
 20
95.297000
 30
0.0
 10
6.113000
 20
95.852000
 30
0.0
 10
6.980000
 20
96.495000
 30
0.0
 10
7.780000
 20
97.220000
 30
0.0
 10
8.505000
 20
98.020000
 30
0.0
 10
9.148000
 20
98.887000
 30
0.0
 10
9.703000
 20
99.813000
 30
0.0
 10
10.165000
 20
100.790000
 30
0.0
 10
10.529000
 20
101.806000
 30
0.0
 10
10.791000
 20
102.854000
 30
0.0
 10
10.950000
 20
103.922000
 30
0.0
 10
11.003000
 20
105.000000
 30
0.0
 10
10.950000
 20
106.078000
 30
0.0
 10
10.791000
 20
107.146000
 30
0.0
 10
10.529000
 20
108.194000
 30
0.0
 10
10.165000
 20
109.210000
 30
0.0
 10
9.703000
 20
110.187000
 30
0.0
 10
9.148000
 20
111.113000
 30
0.0
 10
8.505000
 20
111.980000
 30
0.0
 10
7.780000
 20
112.780000
 30
0.0
 10
6.980000
 20
113.505000
 30
0.0
 10
6.113000
 20
114.148000
 30
0.0
 10
5.187000
 20
114.703000
 30
0.0
 10
4.210000
 20
115.165000
 30
0.0
 10
3.194000
 20
115.529000
 30
0.0
 10
2.146000
 20
115.791000
 30
0.0
 10
1.078000
 20
115.950000
 30
0.0
  0
ENDSEC
  0
SECTION
  2
OBJECTS
  0
DICTIONARY
  5
C
330
0
100
AcDbDictionary
  3
ACAD_GROUP
350
D
  3
ACAD_MLINESTYLE
350
17
  0
DICTIONARY
  5
D
330
C
100
AcDbDictionary
  0
DICTIONARY
  5
1A
330
C
100
AcDbDictionary
  0
DICTIONARY
  5
17
330
C
100
AcDbDictionary
  3
STANDARD
350
18
  0
DICTIONARY
  5
19
330
C
100
AcDbDictionary
  0
ENDSEC
  0
EOF
